<svg width="1439" height="440" viewBox="0 0 1439 440" fill="none" xmlns="http://www.w3.org/2000/svg">
<path d="M-1 40C-1 17.9086 16.9086 0 39 0H1399C1421.09 0 1439 17.9086 1439 40V440H-1V40Z" fill="url(#paint0_linear_102_1465)"/>
<path d="M138.184 382.684C139.178 381.69 139.668 380.5 139.668 379.1C139.668 377.7 139.178 376.51 138.184 375.516C137.19 374.522 136 374.032 134.6 374.032C133.2 374.032 132.01 374.522 131.016 375.516C130.022 376.51 129.532 377.7 129.532 379.1C129.532 380.5 130.022 381.69 131.016 382.684C132.01 383.678 133.2 384.168 134.6 384.168C136 384.168 137.19 383.678 138.184 382.684ZM134.6 383.748C133.326 383.748 132.234 383.3 131.324 382.39C130.428 381.48 129.98 380.388 129.98 379.1C129.98 377.812 130.428 376.72 131.324 375.81C132.234 374.9 133.326 374.452 134.6 374.452C135.874 374.452 136.952 374.9 137.848 375.81C138.758 376.72 139.206 377.812 139.206 379.1C139.206 380.388 138.758 381.48 137.848 382.39C136.952 383.3 135.874 383.748 134.6 383.748ZM134.642 381.802C135.636 381.802 136.518 381.284 136.966 380.486L136 379.912C135.776 380.416 135.23 380.71 134.628 380.71C133.676 380.71 133.032 379.982 133.032 379.1C133.032 378.218 133.676 377.49 134.628 377.49C135.286 377.49 135.748 377.756 135.986 378.274L136.952 377.714C136.504 376.888 135.636 376.398 134.642 376.398C133.872 376.398 133.228 376.664 132.696 377.196C132.164 377.714 131.898 378.358 131.898 379.1C131.898 379.842 132.164 380.486 132.696 381.018C133.228 381.536 133.872 381.802 134.642 381.802ZM150.516 384V382.74H146.078L148.584 380.248C149.746 379.086 150.334 378.008 150.334 377.014C150.334 376.104 150.026 375.376 149.424 374.83C148.822 374.284 148.108 374.018 147.282 374.018C145.952 374.018 144.804 374.676 144.188 375.95L145.28 376.594C145.7 375.712 146.372 375.278 147.296 375.278C148.262 375.278 149.032 375.922 149.032 377.028C149.032 377.686 148.57 378.484 147.646 379.408L144.188 382.936V384H150.516ZM158.126 382.796C158.784 381.872 159.12 380.64 159.12 379.1C159.12 377.56 158.784 376.328 158.126 375.404C157.468 374.48 156.53 374.018 155.34 374.018C154.15 374.018 153.212 374.48 152.554 375.404C151.896 376.328 151.56 377.56 151.56 379.1C151.56 380.64 151.896 381.872 152.554 382.796C153.212 383.72 154.15 384.182 155.34 384.182C156.53 384.182 157.468 383.72 158.126 382.796ZM152.862 379.1C152.862 376.65 153.758 375.278 155.34 375.278C156.922 375.278 157.832 376.678 157.832 379.1C157.832 381.522 156.922 382.908 155.34 382.908C153.758 382.908 152.862 381.522 152.862 379.1ZM166.402 384V382.74H161.964L164.47 380.248C165.632 379.086 166.22 378.008 166.22 377.014C166.22 376.104 165.912 375.376 165.31 374.83C164.708 374.284 163.994 374.018 163.168 374.018C161.838 374.018 160.69 374.676 160.074 375.95L161.166 376.594C161.586 375.712 162.258 375.278 163.182 375.278C164.148 375.278 164.918 375.922 164.918 377.028C164.918 377.686 164.456 378.484 163.532 379.408L160.074 382.936V384H166.402ZM173.785 384V382.74H169.347L171.853 380.248C173.015 379.086 173.603 378.008 173.603 377.014C173.603 376.104 173.295 375.376 172.693 374.83C172.091 374.284 171.377 374.018 170.551 374.018C169.221 374.018 168.073 374.676 167.457 375.95L168.549 376.594C168.969 375.712 169.641 375.278 170.565 375.278C171.531 375.278 172.301 375.922 172.301 377.028C172.301 377.686 171.839 378.484 170.915 379.408L167.457 382.936V384H173.785ZM186.586 374.2L183.478 379.38L180.356 374.2H178.886V384H180.188V376.356L183.394 381.676H183.562L186.768 376.342V384H188.056V374.2H186.586ZM195.934 383.118C196.648 382.404 197.012 381.536 197.012 380.5C197.012 379.464 196.648 378.596 195.934 377.882C195.22 377.168 194.338 376.818 193.316 376.818C192.294 376.818 191.412 377.168 190.698 377.882C189.984 378.596 189.634 379.464 189.634 380.5C189.634 381.536 189.984 382.404 190.698 383.118C191.412 383.832 192.294 384.182 193.316 384.182C194.338 384.182 195.22 383.832 195.934 383.118ZM193.316 382.992C192.63 382.992 192.042 382.754 191.566 382.278C191.09 381.802 190.852 381.214 190.852 380.5C190.852 379.786 191.09 379.198 191.566 378.722C192.042 378.246 192.63 378.008 193.316 378.008C194.016 378.008 194.604 378.246 195.08 378.722C195.556 379.198 195.794 379.786 195.794 380.5C195.794 381.214 195.556 381.802 195.08 382.278C194.604 382.754 194.016 382.992 193.316 382.992ZM201.933 376.818C200.911 376.818 200.155 377.21 199.665 378.008V377H198.447V384H199.665V380.29C199.665 378.722 200.477 377.98 201.695 377.98C202.773 377.98 203.431 378.638 203.431 379.772V384H204.649V379.702C204.649 377.924 203.571 376.818 201.933 376.818ZM206.966 376.132C207.414 376.132 207.778 375.768 207.778 375.32C207.778 374.872 207.414 374.494 206.966 374.494C206.504 374.494 206.14 374.872 206.14 375.32C206.14 375.768 206.504 376.132 206.966 376.132ZM207.568 384V377H206.35V384H207.568ZM213.234 377H211.372V375.04L210.154 375.404V377H208.768V378.176H210.154V381.97C210.154 383.706 211.106 384.28 213.234 384V382.908C211.988 382.964 211.372 383.048 211.372 381.97V378.176H213.234V377ZM220.625 383.118C221.339 382.404 221.703 381.536 221.703 380.5C221.703 379.464 221.339 378.596 220.625 377.882C219.911 377.168 219.029 376.818 218.007 376.818C216.985 376.818 216.103 377.168 215.389 377.882C214.675 378.596 214.325 379.464 214.325 380.5C214.325 381.536 214.675 382.404 215.389 383.118C216.103 383.832 216.985 384.182 218.007 384.182C219.029 384.182 219.911 383.832 220.625 383.118ZM218.007 382.992C217.321 382.992 216.733 382.754 216.257 382.278C215.781 381.802 215.543 381.214 215.543 380.5C215.543 379.786 215.781 379.198 216.257 378.722C216.733 378.246 217.321 378.008 218.007 378.008C218.707 378.008 219.295 378.246 219.771 378.722C220.247 379.198 220.485 379.786 220.485 380.5C220.485 381.214 220.247 381.802 219.771 382.278C219.295 382.754 218.707 382.992 218.007 382.992ZM223.348 384.154C223.866 384.154 224.258 383.748 224.258 383.244C224.258 382.74 223.866 382.334 223.348 382.334C222.844 382.334 222.438 382.74 222.438 383.244C222.438 383.748 222.844 384.154 223.348 384.154ZM237.449 384L233.795 374.2H232.325L228.671 384H230.057L230.855 381.802H235.265L236.063 384H237.449ZM233.053 375.754L234.817 380.584H231.303L233.053 375.754ZM239.697 384V373.78H238.479V384H239.697ZM242.773 384V373.78H241.555V384H242.773ZM249.349 377H248.131V384H249.349V380.29C249.349 379.52 249.559 378.974 249.993 378.624C250.427 378.274 250.931 378.12 251.533 378.148V376.874C250.483 376.874 249.755 377.308 249.349 378.176V377ZM253.341 376.132C253.789 376.132 254.153 375.768 254.153 375.32C254.153 374.872 253.789 374.494 253.341 374.494C252.879 374.494 252.515 374.872 252.515 375.32C252.515 375.768 252.879 376.132 253.341 376.132ZM253.943 384V377H252.725V384H253.943ZM261.611 378.204C261.009 377.28 260.127 376.818 258.979 376.818C257.985 376.818 257.131 377.168 256.445 377.882C255.759 378.582 255.409 379.436 255.409 380.458C255.409 381.48 255.759 382.334 256.445 383.048C257.131 383.762 257.985 384.112 258.979 384.112C260.113 384.112 260.995 383.65 261.611 382.712V383.706C261.611 385.036 260.729 385.848 259.273 385.848C258.139 385.848 257.369 385.456 256.991 384.672L255.927 385.274C256.501 386.38 257.677 386.982 259.245 386.982C260.225 386.982 261.065 386.688 261.765 386.114C262.465 385.54 262.815 384.742 262.815 383.706V377H261.611V378.204ZM261.611 380.458C261.611 381.172 261.373 381.76 260.897 382.236C260.421 382.712 259.833 382.95 259.119 382.95C258.405 382.95 257.817 382.712 257.341 382.236C256.865 381.76 256.627 381.172 256.627 380.458C256.627 379.758 256.865 379.17 257.341 378.694C257.817 378.218 258.405 377.98 259.119 377.98C259.833 377.98 260.421 378.218 260.897 378.694C261.373 379.17 261.611 379.758 261.611 380.458ZM268.146 376.818C267.124 376.818 266.368 377.21 265.878 378.008V374.2H264.66V384H265.878V380.29C265.878 378.722 266.69 377.98 267.908 377.98C268.986 377.98 269.644 378.638 269.644 379.772V384H270.862V379.702C270.862 377.924 269.784 376.818 268.146 376.818ZM276.371 377H274.509V375.04L273.291 375.404V377H271.905V378.176H273.291V381.97C273.291 383.706 274.243 384.28 276.371 384V382.908C275.125 382.964 274.509 383.048 274.509 381.97V378.176H276.371V377ZM278.521 378.89C278.521 378.288 279.081 377.952 279.767 377.952C280.509 377.952 281.013 378.246 281.265 378.848L282.287 378.274C281.839 377.364 280.901 376.818 279.767 376.818C279.053 376.818 278.465 377.014 277.989 377.406C277.527 377.798 277.289 378.302 277.289 378.904C277.289 380.388 278.717 380.752 279.823 381.046C280.593 381.228 281.209 381.536 281.209 382.082C281.209 382.74 280.621 383.034 279.823 383.034C278.969 383.034 278.311 382.614 278.087 381.942L277.037 382.544C277.443 383.538 278.465 384.182 279.823 384.182C280.593 384.182 281.209 383.986 281.699 383.608C282.189 383.23 282.441 382.712 282.441 382.082C282.455 380.584 280.999 380.178 279.907 379.94C279.137 379.73 278.521 379.436 278.521 378.89ZM288.601 377H287.383V384H288.601V380.29C288.601 379.52 288.811 378.974 289.245 378.624C289.679 378.274 290.183 378.12 290.785 378.148V376.874C289.735 376.874 289.007 377.308 288.601 378.176V377ZM298.697 381.06C298.725 380.878 298.739 380.696 298.739 380.514C298.739 379.492 298.417 378.624 297.759 377.91C297.115 377.182 296.275 376.818 295.253 376.818C294.175 376.818 293.293 377.168 292.607 377.868C291.921 378.568 291.585 379.45 291.585 380.5C291.585 381.564 291.935 382.446 292.621 383.146C293.321 383.832 294.231 384.182 295.337 384.182C296.709 384.182 297.731 383.65 298.417 382.6L297.381 382.012C296.961 382.698 296.289 383.034 295.365 383.034C294.035 383.034 293.069 382.306 292.831 381.06H298.697ZM295.253 377.966C296.373 377.966 297.297 378.666 297.507 379.996H292.831C293.041 378.764 293.951 377.966 295.253 377.966ZM300.915 378.89C300.915 378.288 301.475 377.952 302.161 377.952C302.903 377.952 303.407 378.246 303.659 378.848L304.681 378.274C304.233 377.364 303.295 376.818 302.161 376.818C301.447 376.818 300.859 377.014 300.383 377.406C299.921 377.798 299.683 378.302 299.683 378.904C299.683 380.388 301.111 380.752 302.217 381.046C302.987 381.228 303.603 381.536 303.603 382.082C303.603 382.74 303.015 383.034 302.217 383.034C301.363 383.034 300.705 382.614 300.481 381.942L299.431 382.544C299.837 383.538 300.859 384.182 302.217 384.182C302.987 384.182 303.603 383.986 304.093 383.608C304.583 383.23 304.835 382.712 304.835 382.082C304.849 380.584 303.393 380.178 302.301 379.94C301.531 379.73 300.915 379.436 300.915 378.89ZM312.998 381.06C313.026 380.878 313.04 380.696 313.04 380.514C313.04 379.492 312.718 378.624 312.06 377.91C311.416 377.182 310.576 376.818 309.554 376.818C308.476 376.818 307.594 377.168 306.908 377.868C306.222 378.568 305.886 379.45 305.886 380.5C305.886 381.564 306.236 382.446 306.922 383.146C307.622 383.832 308.532 384.182 309.638 384.182C311.01 384.182 312.032 383.65 312.718 382.6L311.682 382.012C311.262 382.698 310.59 383.034 309.666 383.034C308.336 383.034 307.37 382.306 307.132 381.06H312.998ZM309.554 377.966C310.674 377.966 311.598 378.666 311.808 379.996H307.132C307.342 378.764 308.252 377.966 309.554 377.966ZM315.658 377H314.44V384H315.658V380.29C315.658 379.52 315.868 378.974 316.302 378.624C316.736 378.274 317.24 378.12 317.842 378.148V376.874C316.792 376.874 316.064 377.308 315.658 378.176V377ZM321.735 382.698L319.537 377H318.221L321.021 384H322.449L325.249 377H323.933L321.735 382.698ZM332.999 381.06C333.027 380.878 333.041 380.696 333.041 380.514C333.041 379.492 332.719 378.624 332.061 377.91C331.417 377.182 330.577 376.818 329.555 376.818C328.477 376.818 327.595 377.168 326.909 377.868C326.223 378.568 325.887 379.45 325.887 380.5C325.887 381.564 326.237 382.446 326.923 383.146C327.623 383.832 328.533 384.182 329.639 384.182C331.011 384.182 332.033 383.65 332.719 382.6L331.683 382.012C331.263 382.698 330.591 383.034 329.667 383.034C328.337 383.034 327.371 382.306 327.133 381.06H332.999ZM329.555 377.966C330.675 377.966 331.599 378.666 331.809 379.996H327.133C327.343 378.764 328.253 377.966 329.555 377.966ZM340.238 378.204C339.636 377.28 338.754 376.818 337.592 376.818C336.612 376.818 335.772 377.182 335.086 377.896C334.4 378.61 334.05 379.478 334.05 380.5C334.05 381.522 334.4 382.404 335.086 383.118C335.772 383.832 336.612 384.182 337.592 384.182C338.754 384.182 339.636 383.72 340.238 382.796V384H341.456V374.2H340.238V378.204ZM337.746 383.006C337.046 383.006 336.458 382.768 335.982 382.292C335.506 381.802 335.268 381.214 335.268 380.5C335.268 379.786 335.506 379.198 335.982 378.722C336.458 378.232 337.046 377.994 337.746 377.994C338.46 377.994 339.048 378.232 339.524 378.722C340 379.198 340.238 379.786 340.238 380.5C340.238 381.214 340 381.802 339.524 382.292C339.048 382.768 338.46 383.006 337.746 383.006ZM344.071 384.154C344.589 384.154 344.981 383.748 344.981 383.244C344.981 382.74 344.589 382.334 344.071 382.334C343.567 382.334 343.161 382.74 343.161 383.244C343.161 383.748 343.567 384.154 344.071 384.154Z" fill="#667479"/>
<path d="M1082.25 374.2V375.432H1085.14V384H1086.42V375.432H1089.32V374.2H1082.25ZM1095.93 381.06C1095.96 380.878 1095.98 380.696 1095.98 380.514C1095.98 379.492 1095.65 378.624 1095 377.91C1094.35 377.182 1093.51 376.818 1092.49 376.818C1091.41 376.818 1090.53 377.168 1089.84 377.868C1089.16 378.568 1088.82 379.45 1088.82 380.5C1088.82 381.564 1089.17 382.446 1089.86 383.146C1090.56 383.832 1091.47 384.182 1092.57 384.182C1093.95 384.182 1094.97 383.65 1095.65 382.6L1094.62 382.012C1094.2 382.698 1093.53 383.034 1092.6 383.034C1091.27 383.034 1090.31 382.306 1090.07 381.06H1095.93ZM1092.49 377.966C1093.61 377.966 1094.53 378.666 1094.74 379.996H1090.07C1090.28 378.764 1091.19 377.966 1092.49 377.966ZM1098.59 377H1097.38V384H1098.59V380.29C1098.59 379.52 1098.8 378.974 1099.24 378.624C1099.67 378.274 1100.18 378.12 1100.78 378.148V376.874C1099.73 376.874 1099 377.308 1098.59 378.176V377ZM1109.53 376.818C1108.55 376.818 1107.82 377.21 1107.33 378.008C1106.9 377.21 1106.21 376.818 1105.27 376.818C1104.36 376.818 1103.66 377.196 1103.19 377.938V377H1101.97V384H1103.19V380.108C1103.19 378.694 1103.96 377.98 1104.98 377.98C1105.89 377.98 1106.46 378.61 1106.46 379.688V384H1107.68V380.108C1107.68 378.666 1108.35 377.98 1109.4 377.98C1110.34 377.98 1110.94 378.61 1110.94 379.688V384H1112.16V379.646C1112.16 377.91 1111.1 376.818 1109.53 376.818ZM1114.9 378.89C1114.9 378.288 1115.46 377.952 1116.15 377.952C1116.89 377.952 1117.39 378.246 1117.64 378.848L1118.67 378.274C1118.22 377.364 1117.28 376.818 1116.15 376.818C1115.43 376.818 1114.84 377.014 1114.37 377.406C1113.91 377.798 1113.67 378.302 1113.67 378.904C1113.67 380.388 1115.1 380.752 1116.2 381.046C1116.97 381.228 1117.59 381.536 1117.59 382.082C1117.59 382.74 1117 383.034 1116.2 383.034C1115.35 383.034 1114.69 382.614 1114.47 381.942L1113.42 382.544C1113.82 383.538 1114.84 384.182 1116.2 384.182C1116.97 384.182 1117.59 383.986 1118.08 383.608C1118.57 383.23 1118.82 382.712 1118.82 382.082C1118.83 380.584 1117.38 380.178 1116.29 379.94C1115.52 379.73 1114.9 379.436 1114.9 378.89ZM1129.67 383.118C1130.38 382.404 1130.75 381.536 1130.75 380.5C1130.75 379.464 1130.38 378.596 1129.67 377.882C1128.96 377.168 1128.07 376.818 1127.05 376.818C1126.03 376.818 1125.15 377.168 1124.43 377.882C1123.72 378.596 1123.37 379.464 1123.37 380.5C1123.37 381.536 1123.72 382.404 1124.43 383.118C1125.15 383.832 1126.03 384.182 1127.05 384.182C1128.07 384.182 1128.96 383.832 1129.67 383.118ZM1127.05 382.992C1126.37 382.992 1125.78 382.754 1125.3 382.278C1124.83 381.802 1124.59 381.214 1124.59 380.5C1124.59 379.786 1124.83 379.198 1125.3 378.722C1125.78 378.246 1126.37 378.008 1127.05 378.008C1127.75 378.008 1128.34 378.246 1128.82 378.722C1129.29 379.198 1129.53 379.786 1129.53 380.5C1129.53 381.214 1129.29 381.802 1128.82 382.278C1128.34 382.754 1127.75 382.992 1127.05 382.992ZM1135.52 374.018C1133.55 373.892 1132.46 374.9 1132.46 376.79V377H1131.34V378.176H1132.46V384H1133.67V378.176H1135.52V377H1133.67V376.79C1133.67 375.628 1134.29 375.096 1135.52 375.194V374.018ZM1143.24 384.182C1144.25 384.182 1145.06 383.93 1145.69 383.426C1146.32 382.908 1146.63 382.222 1146.63 381.368C1146.63 380.752 1146.49 380.248 1146.14 379.898C1145.9 379.618 1145.77 379.464 1145.38 379.254C1145 379.044 1144.89 378.974 1144.4 378.792C1144.16 378.694 1144 378.638 1143.88 378.596L1143.31 378.414C1142.55 378.176 1142.02 377.938 1141.71 377.714C1141.41 377.49 1141.25 377.168 1141.25 376.734C1141.25 375.838 1141.97 375.278 1143.03 375.278C1144.09 375.278 1144.84 375.782 1145.26 376.79L1146.35 376.16C1145.77 374.872 1144.58 374.018 1143.03 374.018C1142.18 374.018 1141.45 374.27 1140.85 374.774C1140.24 375.264 1139.95 375.936 1139.95 376.79C1139.95 377.504 1140.24 378.078 1140.57 378.428C1140.72 378.596 1140.96 378.764 1141.28 378.932C1141.6 379.086 1141.88 379.212 1142.09 379.296L1143.03 379.604C1143.86 379.87 1144.46 380.108 1144.81 380.346C1145.16 380.584 1145.34 380.934 1145.34 381.396C1145.34 382.306 1144.61 382.908 1143.27 382.908C1141.91 382.908 1141.03 382.32 1140.65 381.13L1139.53 381.774C1140.05 383.272 1141.41 384.182 1143.24 384.182ZM1154.76 381.06C1154.79 380.878 1154.81 380.696 1154.81 380.514C1154.81 379.492 1154.48 378.624 1153.83 377.91C1153.18 377.182 1152.34 376.818 1151.32 376.818C1150.24 376.818 1149.36 377.168 1148.67 377.868C1147.99 378.568 1147.65 379.45 1147.65 380.5C1147.65 381.564 1148 382.446 1148.69 383.146C1149.39 383.832 1150.3 384.182 1151.4 384.182C1152.78 384.182 1153.8 383.65 1154.48 382.6L1153.45 382.012C1153.03 382.698 1152.36 383.034 1151.43 383.034C1150.1 383.034 1149.14 382.306 1148.9 381.06H1154.76ZM1151.32 377.966C1152.44 377.966 1153.36 378.666 1153.57 379.996H1148.9C1149.11 378.764 1150.02 377.966 1151.32 377.966ZM1157.42 377H1156.21V384H1157.42V380.29C1157.42 379.52 1157.63 378.974 1158.07 378.624C1158.5 378.274 1159.01 378.12 1159.61 378.148V376.874C1158.56 376.874 1157.83 377.308 1157.42 378.176V377ZM1163.5 382.698L1161.3 377H1159.99L1162.79 384H1164.22L1167.02 377H1165.7L1163.5 382.698ZM1168.66 376.132C1169.11 376.132 1169.47 375.768 1169.47 375.32C1169.47 374.872 1169.11 374.494 1168.66 374.494C1168.2 374.494 1167.84 374.872 1167.84 375.32C1167.84 375.768 1168.2 376.132 1168.66 376.132ZM1169.26 384V377H1168.05V384H1169.26ZM1174.41 384.182C1175.77 384.182 1176.96 383.468 1177.56 382.362L1176.53 381.76C1176.13 382.502 1175.35 382.978 1174.41 382.978C1173.71 382.978 1173.12 382.74 1172.65 382.264C1172.19 381.788 1171.95 381.2 1171.95 380.5C1171.95 379.786 1172.19 379.198 1172.65 378.722C1173.12 378.246 1173.71 378.008 1174.41 378.008C1175.35 378.008 1176.13 378.498 1176.48 379.24L1177.51 378.652C1176.96 377.532 1175.8 376.818 1174.41 376.818C1173.36 376.818 1172.48 377.168 1171.78 377.882C1171.08 378.582 1170.73 379.45 1170.73 380.5C1170.73 381.55 1171.08 382.418 1171.78 383.132C1172.48 383.832 1173.36 384.182 1174.41 384.182ZM1185.5 381.06C1185.53 380.878 1185.54 380.696 1185.54 380.514C1185.54 379.492 1185.22 378.624 1184.56 377.91C1183.92 377.182 1183.08 376.818 1182.05 376.818C1180.98 376.818 1180.09 377.168 1179.41 377.868C1178.72 378.568 1178.39 379.45 1178.39 380.5C1178.39 381.564 1178.74 382.446 1179.42 383.146C1180.12 383.832 1181.03 384.182 1182.14 384.182C1183.51 384.182 1184.53 383.65 1185.22 382.6L1184.18 382.012C1183.76 382.698 1183.09 383.034 1182.17 383.034C1180.84 383.034 1179.87 382.306 1179.63 381.06H1185.5ZM1182.05 377.966C1183.17 377.966 1184.1 378.666 1184.31 379.996H1179.63C1179.84 378.764 1180.75 377.966 1182.05 377.966ZM1222.07 374.2V384H1223.37V380.5H1225.62C1226.53 380.5 1227.27 380.192 1227.88 379.59C1228.48 378.988 1228.79 378.232 1228.79 377.35C1228.79 376.454 1228.48 375.712 1227.88 375.11C1227.27 374.508 1226.53 374.2 1225.62 374.2H1222.07ZM1223.37 379.282V375.418H1225.62C1226.7 375.418 1227.5 376.23 1227.5 377.35C1227.5 377.896 1227.32 378.358 1226.97 378.736C1226.62 379.1 1226.17 379.282 1225.62 379.282H1223.37ZM1231.27 377H1230.05V384H1231.27V380.29C1231.27 379.52 1231.48 378.974 1231.91 378.624C1232.34 378.274 1232.85 378.12 1233.45 378.148V376.874C1232.4 376.874 1231.67 377.308 1231.27 378.176V377ZM1235.26 376.132C1235.7 376.132 1236.07 375.768 1236.07 375.32C1236.07 374.872 1235.7 374.494 1235.26 374.494C1234.79 374.494 1234.43 374.872 1234.43 375.32C1234.43 375.768 1234.79 376.132 1235.26 376.132ZM1235.86 384V377H1234.64V384H1235.86ZM1240.42 382.698L1238.22 377H1236.9L1239.7 384H1241.13L1243.93 377H1242.62L1240.42 382.698ZM1250.49 378.204C1249.88 377.28 1249 376.818 1247.84 376.818C1246.86 376.818 1246.02 377.182 1245.33 377.896C1244.65 378.61 1244.3 379.478 1244.3 380.5C1244.3 381.522 1244.65 382.404 1245.33 383.118C1246.02 383.832 1246.86 384.182 1247.84 384.182C1249 384.182 1249.88 383.72 1250.49 382.796V384H1251.7V377H1250.49V378.204ZM1247.99 383.006C1247.29 383.006 1246.71 382.768 1246.23 382.292C1245.75 381.802 1245.52 381.214 1245.52 380.5C1245.52 379.786 1245.75 379.198 1246.23 378.722C1246.71 378.232 1247.29 377.994 1247.99 377.994C1248.71 377.994 1249.3 378.232 1249.77 378.722C1250.25 379.198 1250.49 379.786 1250.49 380.5C1250.49 381.214 1250.25 381.802 1249.77 382.292C1249.3 382.768 1248.71 383.006 1247.99 383.006ZM1256.84 384.182C1258.2 384.182 1259.39 383.468 1259.99 382.362L1258.95 381.76C1258.56 382.502 1257.78 382.978 1256.84 382.978C1256.14 382.978 1255.55 382.74 1255.08 382.264C1254.61 381.788 1254.38 381.2 1254.38 380.5C1254.38 379.786 1254.61 379.198 1255.08 378.722C1255.55 378.246 1256.14 378.008 1256.84 378.008C1257.78 378.008 1258.56 378.498 1258.91 379.24L1259.93 378.652C1259.39 377.532 1258.23 376.818 1256.84 376.818C1255.79 376.818 1254.91 377.168 1254.21 377.882C1253.51 378.582 1253.16 379.45 1253.16 380.5C1253.16 381.55 1253.51 382.418 1254.21 383.132C1254.91 383.832 1255.79 384.182 1256.84 384.182ZM1264.08 382.488L1261.7 377H1260.39L1263.45 383.972L1263.32 384.238C1262.91 385.26 1262.28 385.736 1261.43 385.666V386.8C1262.83 386.898 1263.94 386.016 1264.54 384.434L1267.39 377H1266.09L1264.08 382.488ZM1272.04 374.2V384H1273.34V380.5H1275.59C1276.5 380.5 1277.24 380.192 1277.85 379.59C1278.45 378.988 1278.76 378.232 1278.76 377.35C1278.76 376.454 1278.45 375.712 1277.85 375.11C1277.24 374.508 1276.5 374.2 1275.59 374.2H1272.04ZM1273.34 379.282V375.418H1275.59C1276.67 375.418 1277.47 376.23 1277.47 377.35C1277.47 377.896 1277.29 378.358 1276.94 378.736C1276.59 379.1 1276.14 379.282 1275.59 379.282H1273.34ZM1286.08 383.118C1286.79 382.404 1287.15 381.536 1287.15 380.5C1287.15 379.464 1286.79 378.596 1286.08 377.882C1285.36 377.168 1284.48 376.818 1283.46 376.818C1282.44 376.818 1281.55 377.168 1280.84 377.882C1280.13 378.596 1279.78 379.464 1279.78 380.5C1279.78 381.536 1280.13 382.404 1280.84 383.118C1281.55 383.832 1282.44 384.182 1283.46 384.182C1284.48 384.182 1285.36 383.832 1286.08 383.118ZM1283.46 382.992C1282.77 382.992 1282.18 382.754 1281.71 382.278C1281.23 381.802 1280.99 381.214 1280.99 380.5C1280.99 379.786 1281.23 379.198 1281.71 378.722C1282.18 378.246 1282.77 378.008 1283.46 378.008C1284.16 378.008 1284.75 378.246 1285.22 378.722C1285.7 379.198 1285.94 379.786 1285.94 380.5C1285.94 381.214 1285.7 381.802 1285.22 382.278C1284.75 382.754 1284.16 382.992 1283.46 382.992ZM1289.81 384V373.78H1288.59V384H1289.81ZM1292.28 376.132C1292.73 376.132 1293.09 375.768 1293.09 375.32C1293.09 374.872 1292.73 374.494 1292.28 374.494C1291.82 374.494 1291.46 374.872 1291.46 375.32C1291.46 375.768 1291.82 376.132 1292.28 376.132ZM1292.88 384V377H1291.67V384H1292.88ZM1298.03 384.182C1299.39 384.182 1300.58 383.468 1301.18 382.362L1300.15 381.76C1299.75 382.502 1298.97 382.978 1298.03 382.978C1297.33 382.978 1296.74 382.74 1296.27 382.264C1295.81 381.788 1295.57 381.2 1295.57 380.5C1295.57 379.786 1295.81 379.198 1296.27 378.722C1296.74 378.246 1297.33 378.008 1298.03 378.008C1298.97 378.008 1299.75 378.498 1300.1 379.24L1301.13 378.652C1300.58 377.532 1299.42 376.818 1298.03 376.818C1296.98 376.818 1296.1 377.168 1295.4 377.882C1294.7 378.582 1294.35 379.45 1294.35 380.5C1294.35 381.55 1294.7 382.418 1295.4 383.132C1296.1 383.832 1296.98 384.182 1298.03 384.182ZM1305.27 382.488L1302.89 377H1301.59L1304.64 383.972L1304.51 384.238C1304.11 385.26 1303.48 385.736 1302.62 385.666V386.8C1304.02 386.898 1305.13 386.016 1305.73 384.434L1308.59 377H1307.28L1305.27 382.488Z" fill="#667479"/>
<g clip-path="url(#clip0_102_1465)">
<path d="M694.569 392.631C695.211 392.631 695.743 392.849 696.169 393.278C696.606 393.708 696.816 394.244 696.816 394.88C696.816 395.517 696.606 396.042 696.169 396.482C695.743 396.912 695.211 397.129 694.569 397.129H693.185V399.473H692.069V392.637H694.569V392.631ZM694.569 396.068C695.227 396.068 695.701 395.57 695.701 394.875C695.701 394.18 695.227 393.682 694.569 393.682H693.185V396.063H694.569V396.068Z" fill="#103559"/>
<path d="M698.496 397.516C698.657 398.201 699.286 398.578 700.137 398.578C700.722 398.578 701.161 398.387 701.462 398.02L702.374 398.49C701.874 399.146 701.122 399.474 700.132 399.474C699.303 399.474 698.624 399.249 698.112 398.808C697.6 398.358 697.344 397.79 697.344 397.105C697.344 396.42 697.6 395.872 698.101 395.422C698.602 394.962 699.258 394.737 700.048 394.737C700.794 394.737 701.412 394.972 701.89 395.432C702.374 395.892 702.619 396.459 702.619 397.115C702.619 397.213 702.608 397.35 702.58 397.521H698.501L698.496 397.516ZM701.501 396.724C701.345 395.994 700.761 395.613 700.037 395.613C699.219 395.613 698.646 396.038 698.49 396.724H701.501Z" fill="#103559"/>
<path d="M705.784 395.546H704.574V397.897C704.574 398.524 704.982 398.514 705.784 398.477V399.429C704.17 399.626 703.517 399.184 703.517 397.902V395.551H702.619V394.53H703.517V393.472L704.574 393.158V394.53H705.784V395.551V395.546Z" fill="#103559"/>
<path d="M708.387 396.682C709.1 396.833 710.024 397.122 710.004 398.087C710.004 398.518 709.828 398.861 709.487 399.106C709.145 399.351 708.718 399.474 708.201 399.474C707.286 399.474 706.608 399.077 706.312 398.42L707.171 397.936C707.327 398.367 707.668 398.587 708.196 398.587C708.723 398.587 708.984 398.416 708.984 398.082C708.984 397.793 708.598 397.622 708.105 397.504C707.412 397.333 706.478 397.064 706.498 396.113C706.498 395.697 706.653 395.364 706.98 395.114C707.302 394.859 707.713 394.737 708.191 394.737C708.959 394.737 709.577 395.09 709.904 395.677L709.06 396.138C708.904 395.795 708.608 395.623 708.191 395.623C707.814 395.623 707.518 395.785 707.518 396.103C707.518 396.402 707.904 396.554 708.387 396.691V396.682Z" fill="#103559"/>
<path d="M716.335 393.637C715.504 393.57 715.1 393.887 715.1 394.585V394.679H716.335V395.678H715.1V399.473H713.967V395.678H713.17V394.679H713.967V394.585C713.967 393.273 714.786 392.555 716.335 392.638V393.637Z" fill="#103559"/>
<path d="M717.633 398.789C717.123 398.329 716.862 397.771 716.862 397.105C716.862 396.44 717.123 395.882 717.633 395.422C718.143 394.962 718.773 394.737 719.5 394.737C720.227 394.737 720.857 394.962 721.367 395.422C721.877 395.882 722.138 396.44 722.138 397.105C722.138 397.771 721.877 398.329 721.367 398.789C720.857 399.249 720.238 399.474 719.5 399.474C718.762 399.474 718.143 399.249 717.633 398.789ZM719.5 398.529C719.94 398.529 720.309 398.392 720.607 398.123C720.906 397.854 721.058 397.511 721.058 397.105C721.058 396.699 720.906 396.357 720.607 396.087C720.309 395.818 719.94 395.681 719.5 395.681C719.06 395.681 718.691 395.818 718.393 396.087C718.094 396.357 717.942 396.699 717.942 397.105C717.942 397.511 718.094 397.854 718.393 398.123C718.691 398.392 719.06 398.529 719.5 398.529Z" fill="#103559"/>
<path d="M723.752 395.601C724.025 395.025 724.549 394.737 725.303 394.737V395.824C724.893 395.793 724.527 395.889 724.216 396.102C723.905 396.309 723.752 396.653 723.752 397.128V399.474H722.665V394.818H723.752V395.601Z" fill="#103559"/>
<path d="M733.216 397.52C733.216 398.077 733.029 398.545 732.649 398.916C732.27 399.288 731.81 399.473 731.264 399.473H728.468V392.631H731.057C731.588 392.631 732.043 392.817 732.407 393.178C732.781 393.539 732.963 393.99 732.963 394.526C732.963 395.121 732.74 395.583 732.3 395.922C732.867 396.236 733.211 396.803 733.211 397.515L733.216 397.52ZM729.54 393.688V395.487H731.057C731.532 395.487 731.896 395.094 731.896 394.59C731.896 394.086 731.532 393.693 731.057 393.693H729.54V393.688ZM731.264 398.417C731.759 398.417 732.149 397.998 732.149 397.462C732.149 396.926 731.759 396.506 731.264 396.506H729.54V398.422H731.264V398.417Z" fill="#103559"/>
<path d="M735.421 397.516C735.582 398.201 736.211 398.578 737.061 398.578C737.645 398.578 738.084 398.387 738.384 398.02L739.296 398.49C738.795 399.146 738.045 399.474 737.056 399.474C736.227 399.474 735.549 399.249 735.038 398.808C734.526 398.358 734.271 397.79 734.271 397.105C734.271 396.42 734.526 395.872 735.027 395.422C735.527 394.962 736.183 394.737 736.972 394.737C737.717 394.737 738.334 394.972 738.818 395.432C739.301 395.892 739.546 396.459 739.546 397.115C739.546 397.213 739.535 397.35 739.507 397.521H735.432L735.421 397.516ZM738.423 396.724C738.267 395.994 737.684 395.613 736.961 395.613C736.144 395.613 735.571 396.038 735.416 396.724H738.429H738.423Z" fill="#103559"/>
<path d="M741.621 396.682C742.334 396.833 743.258 397.122 743.238 398.087C743.238 398.518 743.062 398.861 742.721 399.106C742.379 399.351 741.952 399.474 741.435 399.474C740.52 399.474 739.842 399.077 739.546 398.42L740.405 397.936C740.561 398.367 740.902 398.587 741.43 398.587C741.957 398.587 742.218 398.416 742.218 398.082C742.218 397.793 741.832 397.622 741.339 397.504C740.646 397.333 739.712 397.064 739.732 396.113C739.732 395.697 739.887 395.364 740.214 395.114C740.535 394.859 740.947 394.737 741.425 394.737C742.193 394.737 742.811 395.09 743.138 395.677L742.294 396.138C742.138 395.795 741.842 395.623 741.425 395.623C741.048 395.623 740.751 395.785 740.751 396.103C740.751 396.402 741.138 396.554 741.621 396.691V396.682Z" fill="#103559"/>
<path d="M746.931 395.546H745.722V397.897C745.722 398.524 746.131 398.514 746.931 398.477V399.429C745.319 399.626 744.667 399.184 744.667 397.902V395.551H743.766V394.53H744.667V393.472L745.722 393.158V394.53H746.931V395.551V395.546Z" fill="#103559"/>
<path d="M686.989 363.215C686.851 361.853 686.304 361.579 685.242 361.579H680.718C679.725 361.579 679.486 361.748 679.109 362.84L675.716 373.873L672.323 362.84C671.946 361.748 671.707 361.579 670.714 361.579H666.184C665.122 361.579 664.575 361.853 664.437 363.215L662.037 384.873C661.936 385.654 662.005 385.966 662.69 386.066L667.868 386.815C668.653 386.915 668.829 386.747 668.93 386.166L670.061 376.02L672.492 385.522C672.731 386.303 673.039 386.615 673.831 386.615H677.601C678.386 386.615 678.7 386.309 678.939 385.522L681.339 376.02L682.502 386.166C682.603 386.747 682.778 386.915 683.564 386.815L688.741 386.066C689.426 385.966 689.495 385.66 689.394 384.873L686.989 363.215Z" fill="#103559"/>
<path d="M699.454 367.369C693.644 367.369 690.486 371.351 690.486 376.842C690.486 382.334 693.644 386.316 699.454 386.316C705.264 386.316 708.422 382.334 708.422 376.842C708.422 371.351 705.264 367.369 699.454 367.369ZM699.454 380.119C698.06 380.119 697.312 378.813 697.312 376.837C697.312 374.862 698.06 373.555 699.454 373.555C700.849 373.555 701.596 374.862 701.596 376.837C701.596 378.813 700.849 380.119 699.454 380.119Z" fill="#103559"/>
<path d="M721.452 367.379C720.261 367.379 711.349 367.616 710.769 368.431C710.532 368.704 710.532 369.078 710.532 369.719L710.806 384.518C710.838 385.874 711.149 386.316 712.334 386.316H716.487C717.678 386.316 718.016 385.874 718.016 384.518V374.3C718.527 374.131 718.696 374.063 719.275 374.026C720.055 373.995 720.429 374.231 720.672 374.873C720.841 375.551 720.877 376.572 720.877 377.96L720.846 384.512C720.846 385.869 721.22 386.311 722.411 386.311H726.664C727.855 386.311 728.161 385.869 728.192 384.512L728.466 375.483C728.498 373.274 728.024 371.239 726.901 369.746C725.71 368.252 723.939 367.369 721.457 367.369L721.452 367.379Z" fill="#103559"/>
<path d="M737.414 369.474H733.139C731.969 369.474 731.633 369.877 731.633 371.234V384.524C731.633 385.876 731.969 386.316 733.139 386.316H737.481C738.651 386.316 739.018 385.876 739.018 384.524L738.951 371.234C738.951 369.914 738.584 369.474 737.414 369.474Z" fill="#103559"/>
<path d="M735.589 360.526C733.058 360.526 731.633 362.085 731.633 364.211C731.633 366.336 733.058 367.895 735.589 367.895C738.121 367.895 739.546 366.336 739.546 364.211C739.546 362.085 738.121 360.526 735.589 360.526Z" fill="#103559"/>
<path d="M753.947 367.92H751.317V363.344C751.317 361.989 750.969 361.579 749.764 361.579H745.683C744.473 361.579 744.093 362.02 744.093 363.344V367.92H742.02C740.879 367.92 740.601 368.125 740.601 369.175V372.874C740.601 373.924 740.879 374.129 742.02 374.129H744.093V380.57C744.093 384.909 746.406 386.842 750.766 386.842C752.046 386.842 753.326 386.742 754.536 386.501C755.056 386.401 755.195 386.264 755.195 385.755L755.023 380.565C755.023 380.123 754.782 379.955 754.333 380.055C753.952 380.155 753.572 380.223 753.053 380.223C752.051 380.223 751.323 379.882 751.323 378.426V374.119H753.952C755.093 374.119 755.372 373.914 755.372 372.863V369.165C755.372 368.114 755.093 367.909 753.952 367.909L753.947 367.92Z" fill="#103559"/>
<path d="M765.395 367.369C759.584 367.369 756.427 371.351 756.427 376.842C756.427 382.334 759.584 386.316 765.395 386.316C771.205 386.316 774.362 382.334 774.362 376.842C774.362 371.351 771.205 367.369 765.395 367.369ZM765.395 380.119C764 380.119 763.253 378.813 763.253 376.837C763.253 374.862 764 373.555 765.395 373.555C766.789 373.555 767.537 374.862 767.537 376.837C767.537 378.813 766.789 380.119 765.395 380.119Z" fill="#103559"/>
<path d="M776.03 368.11C775.421 367.67 774.422 367.925 773.792 368.677C773.161 369.43 773.145 370.397 773.75 370.837C774.359 371.276 775.358 371.022 775.988 370.27C776.619 369.517 776.634 368.55 776.03 368.11Z" fill="#103559"/>
<path d="M761.685 366.831C762.402 366.721 762.871 365.815 762.733 364.803C762.594 363.792 761.907 363.059 761.191 363.169C760.475 363.279 760.005 364.185 760.143 365.196C760.282 366.208 760.969 366.941 761.685 366.831Z" fill="#103559"/>
<path d="M770.969 367.761C771.96 368.261 773.461 367.315 774.315 365.645C775.169 363.976 775.06 362.213 774.063 361.713C773.072 361.213 771.571 362.159 770.717 363.829C769.863 365.498 769.972 367.261 770.969 367.761Z" fill="#103559"/>
<path d="M765.837 366.307C766.836 366.434 767.805 365.126 767.998 363.388C768.191 361.645 767.538 360.136 766.534 360.009C765.535 359.881 764.566 361.19 764.373 362.927C764.18 364.67 764.833 366.18 765.837 366.307Z" fill="#103559"/>
</g>
<mask id="path-26-inside-1_102_1465" fill="white">
<path d="M129 80H1309V320H129V80Z"/>
</mask>
<path d="M1309 319H129V321H1309V319Z" fill="#CCD1D2" mask="url(#path-26-inside-1_102_1465)"/>
<rect x="129" y="80" width="1180" height="136" rx="16" fill="#003459"/>
<path d="M175.352 137L171.632 130.664C173.576 129.776 174.872 127.856 174.872 125.768C174.872 124.232 174.32 122.912 173.24 121.832C172.16 120.752 170.84 120.2 169.28 120.2H162.56V137H165.872V131.168H168.392L171.776 137H175.352ZM169.28 123.296C170.528 123.296 171.56 124.4 171.56 125.768C171.56 127.136 170.528 128.264 169.28 128.264H165.872V123.296H169.28ZM188.822 132.272C188.894 131.816 188.942 131.408 188.942 131C188.942 129.2 188.366 127.712 187.214 126.488C186.086 125.264 184.622 124.664 182.87 124.664C181.022 124.664 179.486 125.264 178.31 126.488C177.134 127.688 176.534 129.2 176.534 131C176.534 132.824 177.134 134.336 178.334 135.536C179.534 136.736 181.118 137.336 183.11 137.336C185.414 137.336 187.166 136.472 188.342 134.768L185.846 133.328C185.246 134.12 184.334 134.528 183.158 134.528C181.31 134.528 180.182 133.784 179.774 132.272H188.822ZM179.726 129.872C180.086 128.336 181.214 127.448 182.87 127.448C184.286 127.448 185.486 128.24 185.846 129.872H179.726ZM200.296 126.488C199.384 125.264 198.112 124.664 196.456 124.664C194.776 124.664 193.36 125.264 192.208 126.464C191.056 127.664 190.479 129.104 190.479 130.808C190.479 132.512 191.056 133.976 192.184 135.176C193.336 136.352 194.752 136.952 196.456 136.952C198.112 136.952 199.384 136.352 200.296 135.128V136.424C200.296 138.32 199.096 139.376 197.152 139.376C195.664 139.376 194.608 138.824 194.008 137.696L191.368 139.208C192.424 141.128 194.464 142.136 197.056 142.136C198.784 142.136 200.248 141.656 201.472 140.672C202.696 139.688 203.32 138.272 203.32 136.424V125H200.296V126.488ZM200.296 130.808C200.296 132.728 198.88 134.096 196.936 134.096C194.992 134.096 193.576 132.728 193.576 130.808C193.576 129.872 193.888 129.08 194.512 128.48C195.16 127.856 195.952 127.544 196.936 127.544C197.92 127.544 198.712 127.856 199.336 128.48C199.984 129.08 200.296 129.872 200.296 130.808ZM207.663 123.944C208.719 123.944 209.583 123.104 209.583 122.096C209.583 121.088 208.719 120.224 207.663 120.224C206.631 120.224 205.767 121.088 205.767 122.096C205.767 123.104 206.631 123.944 207.663 123.944ZM209.223 137V125H206.127V137H209.223ZM214.819 128.408C214.819 127.808 215.419 127.424 216.211 127.424C217.099 127.424 217.747 127.832 218.131 128.648L220.771 127.208C219.835 125.576 218.155 124.664 216.211 124.664C214.915 124.664 213.835 125 212.947 125.696C212.083 126.368 211.651 127.304 211.651 128.48C211.651 130.976 213.883 131.72 215.659 132.176C216.883 132.488 217.843 132.848 217.843 133.496C217.843 134.192 217.291 134.528 216.187 134.528C214.963 134.528 214.195 134 213.835 132.968L211.147 134.48C212.035 136.376 213.715 137.336 216.187 137.336C217.555 137.336 218.707 137 219.619 136.352C220.555 135.68 221.011 134.72 221.011 133.496C221.035 130.928 218.755 130.088 217.003 129.728C215.779 129.416 214.819 129.056 214.819 128.408ZM229.514 125H226.802V121.64L223.706 122.576V125H221.618V127.976H223.706V132.968C223.706 136.256 225.266 137.48 229.514 137V134.192C227.738 134.288 226.802 134.264 226.802 132.968V127.976H229.514V125ZM243.549 132.272C243.621 131.816 243.669 131.408 243.669 131C243.669 129.2 243.093 127.712 241.941 126.488C240.813 125.264 239.349 124.664 237.597 124.664C235.749 124.664 234.213 125.264 233.037 126.488C231.861 127.688 231.261 129.2 231.261 131C231.261 132.824 231.861 134.336 233.061 135.536C234.261 136.736 235.845 137.336 237.837 137.336C240.141 137.336 241.893 136.472 243.069 134.768L240.573 133.328C239.973 134.12 239.061 134.528 237.885 134.528C236.037 134.528 234.909 133.784 234.501 132.272H243.549ZM234.453 129.872C234.813 128.336 235.941 127.448 237.597 127.448C239.013 127.448 240.213 128.24 240.573 129.872H234.453ZM248.926 125H245.83V137H248.926V131.264C248.926 130.112 249.286 129.296 250.03 128.792C250.774 128.288 251.638 128.096 252.574 128.216V124.76C250.942 124.76 249.502 125.528 248.926 127.064V125ZM270.249 130.448L263.049 120.2H260.529V137H263.841V126.728L271.041 137H273.561V120.2H270.249V130.448ZM286.757 135.512C287.981 134.288 288.605 132.776 288.605 131C288.605 129.224 287.981 127.736 286.757 126.512C285.533 125.288 284.021 124.664 282.245 124.664C280.469 124.664 278.957 125.288 277.733 126.512C276.509 127.736 275.909 129.224 275.909 131C275.909 132.776 276.509 134.288 277.733 135.512C278.957 136.736 280.469 137.336 282.245 137.336C284.021 137.336 285.533 136.736 286.757 135.512ZM279.917 133.376C279.317 132.752 279.005 131.96 279.005 131C279.005 130.04 279.317 129.248 279.917 128.624C280.541 128 281.309 127.688 282.245 127.688C283.181 127.688 283.949 128 284.573 128.624C285.197 129.248 285.509 130.04 285.509 131C285.509 131.96 285.197 132.752 284.573 133.376C283.949 134 283.181 134.312 282.245 134.312C281.309 134.312 280.541 134 279.917 133.376ZM301.786 132.392L299.602 125H296.674L294.49 132.368L292.45 125H289.162L292.978 137H295.93L298.138 129.728L300.346 137H303.298L307.114 125H303.826L301.786 132.392ZM320.663 137.336C322.463 137.336 323.927 136.88 325.055 135.968C326.183 135.056 326.759 133.832 326.759 132.272C326.759 131.312 326.495 130.472 326.135 129.896C325.823 129.32 325.055 128.72 324.551 128.408C324.311 128.24 323.951 128.072 323.495 127.904C323.039 127.712 322.679 127.568 322.415 127.496L321.263 127.112C320.015 126.728 319.175 126.368 318.719 126.056C318.287 125.72 318.071 125.288 318.071 124.76C318.071 123.776 318.911 123.08 320.279 123.08C321.743 123.08 322.823 123.8 323.495 125.24L326.279 123.632C325.127 121.256 322.991 119.864 320.279 119.864C318.767 119.864 317.447 120.32 316.367 121.232C315.287 122.12 314.759 123.344 314.759 124.856C314.759 126.392 315.311 127.544 316.343 128.312C317.399 129.056 318.311 129.416 319.823 129.872C321.191 130.256 322.127 130.616 322.655 130.952C323.183 131.264 323.447 131.72 323.447 132.32C323.447 133.352 322.607 134.096 320.759 134.096C318.839 134.096 317.543 133.232 316.895 131.528L314.063 133.184C314.999 135.752 317.327 137.336 320.663 137.336ZM338.999 135.512C340.223 134.288 340.847 132.776 340.847 131C340.847 129.224 340.223 127.736 338.999 126.512C337.775 125.288 336.263 124.664 334.487 124.664C332.711 124.664 331.199 125.288 329.975 126.512C328.751 127.736 328.151 129.224 328.151 131C328.151 132.776 328.751 134.288 329.975 135.512C331.199 136.736 332.711 137.336 334.487 137.336C336.263 137.336 337.775 136.736 338.999 135.512ZM332.159 133.376C331.559 132.752 331.247 131.96 331.247 131C331.247 130.04 331.559 129.248 332.159 128.624C332.783 128 333.551 127.688 334.487 127.688C335.423 127.688 336.191 128 336.815 128.624C337.439 129.248 337.751 130.04 337.751 131C337.751 131.96 337.439 132.752 336.815 133.376C336.191 134 335.423 134.312 334.487 134.312C333.551 134.312 332.783 134 332.159 133.376ZM358.721 120.2L355.073 127.208L351.425 120.2H347.681L353.417 130.448V137H356.705V130.448L362.465 120.2H358.721ZM374.156 135.512C375.38 134.288 376.004 132.776 376.004 131C376.004 129.224 375.38 127.736 374.156 126.512C372.932 125.288 371.42 124.664 369.644 124.664C367.868 124.664 366.356 125.288 365.132 126.512C363.908 127.736 363.308 129.224 363.308 131C363.308 132.776 363.908 134.288 365.132 135.512C366.356 136.736 367.868 137.336 369.644 137.336C371.42 137.336 372.932 136.736 374.156 135.512ZM367.316 133.376C366.716 132.752 366.404 131.96 366.404 131C366.404 130.04 366.716 129.248 367.316 128.624C367.94 128 368.708 127.688 369.644 127.688C370.58 127.688 371.348 128 371.972 128.624C372.596 129.248 372.908 130.04 372.908 131C372.908 131.96 372.596 132.752 371.972 133.376C371.348 134 370.58 134.312 369.644 134.312C368.708 134.312 367.94 134 367.316 133.376ZM386.102 131.48C386.102 133.472 385.07 134.456 383.462 134.456C382.022 134.456 381.086 133.592 381.086 131.984V125H377.99V132.368C377.99 133.928 378.422 135.128 379.262 136.016C380.126 136.904 381.206 137.336 382.526 137.336C384.158 137.336 385.358 136.784 386.102 135.656V137H389.198V125H386.102V131.48ZM398.177 120.2V137H404.849C407.153 137 409.073 136.184 410.609 134.576C412.169 132.968 412.937 130.976 412.937 128.6C412.937 126.224 412.169 124.232 410.609 122.624C409.073 121.016 407.153 120.2 404.849 120.2H398.177ZM401.489 133.832V123.368H404.849C406.313 123.368 407.489 123.848 408.401 124.832C409.313 125.792 409.769 127.04 409.769 128.6C409.769 130.16 409.313 131.408 408.401 132.392C407.489 133.352 406.313 133.832 404.849 133.832H401.489ZM425.367 135.512C426.591 134.288 427.215 132.776 427.215 131C427.215 129.224 426.591 127.736 425.367 126.512C424.143 125.288 422.631 124.664 420.855 124.664C419.079 124.664 417.567 125.288 416.343 126.512C415.119 127.736 414.519 129.224 414.519 131C414.519 132.776 415.119 134.288 416.343 135.512C417.567 136.736 419.079 137.336 420.855 137.336C422.631 137.336 424.143 136.736 425.367 135.512ZM418.527 133.376C417.927 132.752 417.615 131.96 417.615 131C417.615 130.04 417.927 129.248 418.527 128.624C419.151 128 419.919 127.688 420.855 127.688C421.791 127.688 422.559 128 423.183 128.624C423.807 129.248 424.119 130.04 424.119 131C424.119 131.96 423.807 132.752 423.183 133.376C422.559 134 421.791 134.312 420.855 134.312C419.919 134.312 419.151 134 418.527 133.376ZM436.065 124.664C434.433 124.664 433.233 125.216 432.489 126.344V125H429.393V137H432.489V130.52C432.489 128.528 433.521 127.544 435.129 127.544C436.569 127.544 437.505 128.408 437.505 130.016V137H440.601V129.632C440.601 128.072 440.169 126.872 439.305 125.984C438.465 125.096 437.385 124.664 436.065 124.664ZM444.419 125.72L444.827 120.2H441.899L442.307 125.72H444.419ZM454.397 125H451.685V121.64L448.589 122.576V125H446.501V127.976H448.589V132.968C448.589 136.256 450.149 137.48 454.397 137V134.192C452.621 134.288 451.685 134.264 451.685 132.968V127.976H454.397V125ZM475.944 120.2L471.144 128.144L466.32 120.2H462.912V137H466.224V126.128L470.952 133.904H471.336L476.064 126.104V137H479.352V120.2H475.944ZM483.874 123.944C484.93 123.944 485.794 123.104 485.794 122.096C485.794 121.088 484.93 120.224 483.874 120.224C482.842 120.224 481.978 121.088 481.978 122.096C481.978 123.104 482.842 123.944 483.874 123.944ZM485.434 137V125H482.338V137H485.434ZM491.03 128.408C491.03 127.808 491.63 127.424 492.422 127.424C493.31 127.424 493.958 127.832 494.342 128.648L496.982 127.208C496.046 125.576 494.366 124.664 492.422 124.664C491.126 124.664 490.046 125 489.158 125.696C488.294 126.368 487.862 127.304 487.862 128.48C487.862 130.976 490.094 131.72 491.87 132.176C493.094 132.488 494.054 132.848 494.054 133.496C494.054 134.192 493.502 134.528 492.398 134.528C491.174 134.528 490.406 134 490.046 132.968L487.358 134.48C488.246 136.376 489.926 137.336 492.398 137.336C493.766 137.336 494.918 137 495.83 136.352C496.766 135.68 497.222 134.72 497.222 133.496C497.246 130.928 494.966 130.088 493.214 129.728C491.99 129.416 491.03 129.056 491.03 128.408ZM501.436 128.408C501.436 127.808 502.036 127.424 502.828 127.424C503.716 127.424 504.364 127.832 504.748 128.648L507.388 127.208C506.452 125.576 504.772 124.664 502.828 124.664C501.532 124.664 500.452 125 499.564 125.696C498.7 126.368 498.268 127.304 498.268 128.48C498.268 130.976 500.5 131.72 502.276 132.176C503.5 132.488 504.46 132.848 504.46 133.496C504.46 134.192 503.908 134.528 502.804 134.528C501.58 134.528 500.812 134 500.452 132.968L497.764 134.48C498.652 136.376 500.332 137.336 502.804 137.336C504.172 137.336 505.324 137 506.236 136.352C507.172 135.68 507.628 134.72 507.628 133.496C507.652 130.928 505.372 130.088 503.62 129.728C502.396 129.416 501.436 129.056 501.436 128.408ZM176.696 170.816C178.4 169.112 179.24 167.048 179.24 164.6C179.24 162.152 178.4 160.088 176.696 158.408C174.992 156.704 172.928 155.864 170.504 155.864C168.08 155.864 166.016 156.704 164.312 158.408C162.632 160.088 161.792 162.152 161.792 164.6C161.792 167.048 162.632 169.112 164.312 170.816C166.016 172.496 168.08 173.336 170.504 173.336C172.928 173.336 174.992 172.496 176.696 170.816ZM166.64 168.56C165.608 167.528 165.08 166.208 165.08 164.6C165.08 162.992 165.608 161.672 166.64 160.64C167.672 159.608 168.968 159.08 170.504 159.08C172.04 159.08 173.336 159.608 174.368 160.64C175.4 161.672 175.928 162.992 175.928 164.6C175.928 166.208 175.4 167.528 174.368 168.56C173.336 169.592 172.04 170.096 170.504 170.096C168.968 170.096 167.672 169.592 166.64 168.56ZM189.344 167.48C189.344 169.472 188.312 170.456 186.704 170.456C185.264 170.456 184.328 169.592 184.328 167.984V161H181.232V168.368C181.232 169.928 181.664 171.128 182.504 172.016C183.368 172.904 184.448 173.336 185.768 173.336C187.4 173.336 188.6 172.784 189.344 171.656V173H192.44V161H189.344V167.48ZM198.371 161H195.275V173H198.371V167.264C198.371 166.112 198.731 165.296 199.475 164.792C200.219 164.288 201.083 164.096 202.019 164.216V160.76C200.387 160.76 198.947 161.528 198.371 163.064V161ZM209.974 156.2V173H213.286V167.48H216.238C217.846 167.48 219.214 166.928 220.318 165.848C221.422 164.768 221.974 163.424 221.974 161.84C221.974 160.256 221.422 158.912 220.318 157.832C219.214 156.752 217.846 156.2 216.238 156.2H209.974ZM213.286 164.384V159.296H216.238C217.654 159.296 218.686 160.376 218.686 161.84C218.686 163.28 217.654 164.384 216.238 164.384H213.286ZM226.825 161H223.729V173H226.825V167.264C226.825 166.112 227.185 165.296 227.929 164.792C228.673 164.288 229.537 164.096 230.473 164.216V160.76C228.841 160.76 227.401 161.528 226.825 163.064V161ZM242.507 171.512C243.731 170.288 244.355 168.776 244.355 167C244.355 165.224 243.731 163.736 242.507 162.512C241.283 161.288 239.771 160.664 237.995 160.664C236.219 160.664 234.707 161.288 233.483 162.512C232.259 163.736 231.659 165.224 231.659 167C231.659 168.776 232.259 170.288 233.483 171.512C234.707 172.736 236.219 173.336 237.995 173.336C239.771 173.336 241.283 172.736 242.507 171.512ZM235.667 169.376C235.067 168.752 234.755 167.96 234.755 167C234.755 166.04 235.067 165.248 235.667 164.624C236.291 164 237.059 163.688 237.995 163.688C238.931 163.688 239.699 164 240.323 164.624C240.947 165.248 241.259 166.04 241.259 167C241.259 167.96 240.947 168.752 240.323 169.376C239.699 170 238.931 170.312 237.995 170.312C237.059 170.312 236.291 170 235.667 169.376ZM255.725 162.488C254.813 161.264 253.541 160.664 251.885 160.664C250.205 160.664 248.789 161.264 247.637 162.464C246.485 163.664 245.909 165.104 245.909 166.808C245.909 168.512 246.485 169.976 247.613 171.176C248.765 172.352 250.181 172.952 251.885 172.952C253.541 172.952 254.813 172.352 255.725 171.128V172.424C255.725 174.32 254.525 175.376 252.581 175.376C251.093 175.376 250.037 174.824 249.437 173.696L246.797 175.208C247.853 177.128 249.893 178.136 252.485 178.136C254.213 178.136 255.677 177.656 256.901 176.672C258.125 175.688 258.749 174.272 258.749 172.424V161H255.725V162.488ZM255.725 166.808C255.725 168.728 254.309 170.096 252.365 170.096C250.421 170.096 249.005 168.728 249.005 166.808C249.005 165.872 249.317 165.08 249.941 164.48C250.589 163.856 251.381 163.544 252.365 163.544C253.349 163.544 254.141 163.856 254.765 164.48C255.413 165.08 255.725 165.872 255.725 166.808ZM264.653 161H261.557V173H264.653V167.264C264.653 166.112 265.013 165.296 265.757 164.792C266.501 164.288 267.365 164.096 268.301 164.216V160.76C266.669 160.76 265.229 161.528 264.653 163.064V161ZM278.786 162.416C277.85 161.24 276.554 160.664 274.874 160.664C273.266 160.664 271.898 161.288 270.746 162.512C269.618 163.736 269.042 165.224 269.042 167C269.042 168.776 269.618 170.288 270.746 171.512C271.898 172.736 273.266 173.336 274.874 173.336C276.554 173.336 277.85 172.76 278.786 171.584V173H281.882V161H278.786V162.416ZM273.074 169.448C272.45 168.8 272.138 167.984 272.138 167C272.138 166.016 272.45 165.2 273.074 164.576C273.698 163.928 274.49 163.616 275.45 163.616C276.41 163.616 277.202 163.928 277.826 164.576C278.474 165.2 278.786 166.016 278.786 167C278.786 167.984 278.474 168.8 277.826 169.448C277.202 170.072 276.41 170.384 275.45 170.384C274.49 170.384 273.698 170.072 273.074 169.448ZM297.961 160.664C296.377 160.664 295.177 161.24 294.385 162.392C293.689 161.24 292.585 160.664 291.121 160.664C289.609 160.664 288.505 161.192 287.785 162.272V161H284.689V173H287.785V166.256C287.785 164.504 288.673 163.544 290.041 163.544C291.313 163.544 292.057 164.384 292.057 165.824V173H295.153V166.256C295.153 164.504 295.969 163.544 297.385 163.544C298.657 163.544 299.401 164.384 299.401 165.824V173H302.497V165.608C302.497 162.608 300.721 160.664 297.961 160.664ZM307.983 164.408C307.983 163.808 308.583 163.424 309.375 163.424C310.263 163.424 310.911 163.832 311.295 164.648L313.935 163.208C312.999 161.576 311.319 160.664 309.375 160.664C308.079 160.664 306.999 161 306.111 161.696C305.247 162.368 304.815 163.304 304.815 164.48C304.815 166.976 307.047 167.72 308.823 168.176C310.047 168.488 311.007 168.848 311.007 169.496C311.007 170.192 310.455 170.528 309.351 170.528C308.127 170.528 307.359 170 306.999 168.968L304.311 170.48C305.199 172.376 306.879 173.336 309.351 173.336C310.719 173.336 311.871 173 312.783 172.352C313.719 171.68 314.175 170.72 314.175 169.496C314.199 166.928 311.919 166.088 310.167 165.728C308.943 165.416 307.983 165.056 307.983 164.408Z" fill="#FDFDFD"/>
<rect x="570" y="112" width="707" height="72" rx="14" fill="white"/>
<rect x="582.5" y="124.5" width="507" height="47" rx="7.5" fill="white"/>
<rect x="582.5" y="124.5" width="507" height="47" rx="7.5" stroke="#99A2A5"/>
<path d="M612.352 147.66H616.482V146.442H612.352V143.432H616.832V142.2H611.05V152H616.902V150.768H612.352V147.66ZM621.834 144.818C620.812 144.818 620.056 145.21 619.566 146.008V145H618.348V152H619.566V148.29C619.566 146.722 620.378 145.98 621.596 145.98C622.674 145.98 623.332 146.638 623.332 147.772V152H624.55V147.702C624.55 145.924 623.472 144.818 621.834 144.818ZM630.058 145H628.196V143.04L626.978 143.404V145H625.592V146.176H626.978V149.97C626.978 151.706 627.93 152.28 630.058 152V150.908C628.812 150.964 628.196 151.048 628.196 149.97V146.176H630.058V145ZM638.261 149.06C638.289 148.878 638.303 148.696 638.303 148.514C638.303 147.492 637.981 146.624 637.323 145.91C636.679 145.182 635.839 144.818 634.817 144.818C633.739 144.818 632.857 145.168 632.171 145.868C631.485 146.568 631.149 147.45 631.149 148.5C631.149 149.564 631.499 150.446 632.185 151.146C632.885 151.832 633.795 152.182 634.901 152.182C636.273 152.182 637.295 151.65 637.981 150.6L636.945 150.012C636.525 150.698 635.853 151.034 634.929 151.034C633.599 151.034 632.633 150.306 632.395 149.06H638.261ZM634.817 145.966C635.937 145.966 636.861 146.666 637.071 147.996H632.395C632.605 146.764 633.515 145.966 634.817 145.966ZM640.921 145H639.703V152H640.921V148.29C640.921 147.52 641.131 146.974 641.565 146.624C641.999 146.274 642.503 146.12 643.105 146.148V144.874C642.055 144.874 641.327 145.308 640.921 146.176V145ZM650.667 150.488L648.287 145H646.985L650.037 151.972L649.911 152.238C649.505 153.26 648.875 153.736 648.021 153.666V154.8C649.421 154.898 650.527 154.016 651.129 152.434L653.985 145H652.683L650.667 150.488ZM660.91 151.118C661.624 150.404 661.988 149.536 661.988 148.5C661.988 147.464 661.624 146.596 660.91 145.882C660.196 145.168 659.314 144.818 658.292 144.818C657.27 144.818 656.388 145.168 655.674 145.882C654.96 146.596 654.61 147.464 654.61 148.5C654.61 149.536 654.96 150.404 655.674 151.118C656.388 151.832 657.27 152.182 658.292 152.182C659.314 152.182 660.196 151.832 660.91 151.118ZM658.292 150.992C657.606 150.992 657.018 150.754 656.542 150.278C656.066 149.802 655.828 149.214 655.828 148.5C655.828 147.786 656.066 147.198 656.542 146.722C657.018 146.246 657.606 146.008 658.292 146.008C658.992 146.008 659.58 146.246 660.056 146.722C660.532 147.198 660.77 147.786 660.77 148.5C660.77 149.214 660.532 149.802 660.056 150.278C659.58 150.754 658.992 150.992 658.292 150.992ZM668.254 148.71C668.254 150.278 667.442 151.02 666.224 151.02C665.146 151.02 664.488 150.362 664.488 149.228V145H663.27V149.298C663.27 151.076 664.348 152.182 665.986 152.182C667.008 152.182 667.764 151.79 668.254 150.992V152H669.472V145H668.254V148.71ZM672.544 145H671.326V152H672.544V148.29C672.544 147.52 672.754 146.974 673.188 146.624C673.622 146.274 674.126 146.12 674.728 146.148V144.874C673.678 144.874 672.95 145.308 672.544 146.176V145ZM680.848 147.66H684.978V146.442H680.848V143.432H685.328V142.2H679.546V152H685.398V150.768H680.848V147.66ZM694.404 144.818C693.424 144.818 692.696 145.21 692.206 146.008C691.772 145.21 691.086 144.818 690.148 144.818C689.238 144.818 688.538 145.196 688.062 145.938V145H686.844V152H688.062V148.108C688.062 146.694 688.832 145.98 689.854 145.98C690.764 145.98 691.338 146.61 691.338 147.688V152H692.556V148.108C692.556 146.666 693.228 145.98 694.278 145.98C695.216 145.98 695.818 146.61 695.818 147.688V152H697.036V147.646C697.036 145.91 695.972 144.818 694.404 144.818ZM704.521 146.204C703.919 145.28 703.037 144.818 701.875 144.818C700.895 144.818 700.055 145.182 699.369 145.896C698.683 146.61 698.333 147.478 698.333 148.5C698.333 149.522 698.683 150.404 699.369 151.118C700.055 151.832 700.895 152.182 701.875 152.182C703.037 152.182 703.919 151.72 704.521 150.796V152H705.739V145H704.521V146.204ZM702.029 151.006C701.329 151.006 700.741 150.768 700.265 150.292C699.789 149.802 699.551 149.214 699.551 148.5C699.551 147.786 699.789 147.198 700.265 146.722C700.741 146.232 701.329 145.994 702.029 145.994C702.743 145.994 703.331 146.232 703.807 146.722C704.283 147.198 704.521 147.786 704.521 148.5C704.521 149.214 704.283 149.802 703.807 150.292C703.331 150.768 702.743 151.006 702.029 151.006ZM708.2 144.132C708.648 144.132 709.012 143.768 709.012 143.32C709.012 142.872 708.648 142.494 708.2 142.494C707.738 142.494 707.374 142.872 707.374 143.32C707.374 143.768 707.738 144.132 708.2 144.132ZM708.802 152V145H707.584V152H708.802ZM711.878 152V141.78H710.66V152H711.878Z" fill="#99A2A5"/>
<rect x="1102" y="124" width="163" height="48" rx="8" fill="#003459"/>
<path d="M1137.32 154.208C1138.47 154.208 1139.4 153.92 1140.12 153.344C1140.84 152.752 1141.19 151.968 1141.19 150.992C1141.19 150.288 1141.03 149.712 1140.63 149.312C1140.36 148.992 1140.21 148.816 1139.76 148.576C1139.33 148.336 1139.2 148.256 1138.64 148.048C1138.37 147.936 1138.18 147.872 1138.05 147.824L1137.4 147.616C1136.53 147.344 1135.92 147.072 1135.57 146.816C1135.22 146.56 1135.04 146.192 1135.04 145.696C1135.04 144.672 1135.86 144.032 1137.08 144.032C1138.29 144.032 1139.14 144.608 1139.62 145.76L1140.87 145.04C1140.21 143.568 1138.85 142.592 1137.08 142.592C1136.1 142.592 1135.27 142.88 1134.58 143.456C1133.89 144.016 1133.56 144.784 1133.56 145.76C1133.56 146.576 1133.89 147.232 1134.26 147.632C1134.44 147.824 1134.71 148.016 1135.08 148.208C1135.44 148.384 1135.76 148.528 1136 148.624L1137.08 148.976C1138.02 149.28 1138.71 149.552 1139.11 149.824C1139.51 150.096 1139.72 150.496 1139.72 151.024C1139.72 152.064 1138.88 152.752 1137.35 152.752C1135.8 152.752 1134.79 152.08 1134.36 150.72L1133.08 151.456C1133.67 153.168 1135.22 154.208 1137.32 154.208ZM1148.33 150.24C1148.33 152.032 1147.4 152.88 1146.01 152.88C1144.77 152.88 1144.02 152.128 1144.02 150.832V146H1142.63V150.912C1142.63 152.944 1143.86 154.208 1145.73 154.208C1146.9 154.208 1147.77 153.76 1148.33 152.848V154H1149.72V146H1148.33V150.24ZM1156.25 145.792C1154.93 145.792 1153.92 146.32 1153.23 147.376V142.8H1151.84V154H1153.23V152.624C1153.92 153.68 1154.93 154.208 1156.25 154.208C1157.37 154.208 1158.33 153.808 1159.12 152.992C1159.9 152.176 1160.3 151.168 1160.3 150C1160.3 148.832 1159.9 147.84 1159.12 147.024C1158.33 146.208 1157.37 145.792 1156.25 145.792ZM1156.08 152.864C1155.26 152.864 1154.59 152.592 1154.05 152.048C1153.5 151.488 1153.23 150.816 1153.23 150C1153.23 149.184 1153.5 148.512 1154.05 147.968C1154.59 147.408 1155.26 147.136 1156.08 147.136C1156.88 147.136 1157.55 147.408 1158.09 147.968C1158.64 148.512 1158.91 149.184 1158.91 150C1158.91 150.816 1158.64 151.488 1158.09 152.048C1157.55 152.592 1156.88 152.864 1156.08 152.864ZM1165.72 154.208C1167.27 154.208 1168.63 153.392 1169.32 152.128L1168.14 151.44C1167.69 152.288 1166.79 152.832 1165.72 152.832C1164.92 152.832 1164.25 152.56 1163.71 152.016C1163.18 151.472 1162.91 150.8 1162.91 150C1162.91 149.184 1163.18 148.512 1163.71 147.968C1164.25 147.424 1164.92 147.152 1165.72 147.152C1166.79 147.152 1167.69 147.712 1168.09 148.56L1169.26 147.888C1168.63 146.608 1167.31 145.792 1165.72 145.792C1164.52 145.792 1163.51 146.192 1162.71 147.008C1161.91 147.808 1161.51 148.8 1161.51 150C1161.51 151.2 1161.91 152.192 1162.71 153.008C1163.51 153.808 1164.52 154.208 1165.72 154.208ZM1172.1 146H1170.71V154H1172.1V149.76C1172.1 148.88 1172.34 148.256 1172.84 147.856C1173.34 147.456 1173.91 147.28 1174.6 147.312V145.856C1173.4 145.856 1172.57 146.352 1172.1 147.344V146ZM1176.67 145.008C1177.18 145.008 1177.59 144.592 1177.59 144.08C1177.59 143.568 1177.18 143.136 1176.67 143.136C1176.14 143.136 1175.72 143.568 1175.72 144.08C1175.72 144.592 1176.14 145.008 1176.67 145.008ZM1177.35 154V146H1175.96V154H1177.35ZM1183.89 145.792C1182.57 145.792 1181.56 146.32 1180.87 147.376V142.8H1179.48V154H1180.87V152.624C1181.56 153.68 1182.57 154.208 1183.89 154.208C1185.01 154.208 1185.97 153.808 1186.76 152.992C1187.54 152.176 1187.94 151.168 1187.94 150C1187.94 148.832 1187.54 147.84 1186.76 147.024C1185.97 146.208 1185.01 145.792 1183.89 145.792ZM1183.72 152.864C1182.9 152.864 1182.23 152.592 1181.69 152.048C1181.14 151.488 1180.87 150.816 1180.87 150C1180.87 149.184 1181.14 148.512 1181.69 147.968C1182.23 147.408 1182.9 147.136 1183.72 147.136C1184.52 147.136 1185.19 147.408 1185.73 147.968C1186.28 148.512 1186.55 149.184 1186.55 150C1186.55 150.816 1186.28 151.488 1185.73 152.048C1185.19 152.592 1184.52 152.864 1183.72 152.864ZM1197.28 150.64C1197.31 150.432 1197.33 150.224 1197.33 150.016C1197.33 148.848 1196.96 147.856 1196.21 147.04C1195.47 146.208 1194.51 145.792 1193.35 145.792C1192.11 145.792 1191.11 146.192 1190.32 146.992C1189.54 147.792 1189.15 148.8 1189.15 150C1189.15 151.216 1189.55 152.224 1190.34 153.024C1191.14 153.808 1192.18 154.208 1193.44 154.208C1195.01 154.208 1196.18 153.6 1196.96 152.4L1195.78 151.728C1195.3 152.512 1194.53 152.896 1193.47 152.896C1191.95 152.896 1190.85 152.064 1190.58 150.64H1197.28ZM1193.35 147.104C1194.63 147.104 1195.68 147.904 1195.92 149.424H1190.58C1190.82 148.016 1191.86 147.104 1193.35 147.104ZM1210.04 151.152L1204.28 142.8H1203.08V154H1204.56V145.632L1210.32 154H1211.52V142.8H1210.04V151.152ZM1220.53 152.992C1221.34 152.176 1221.76 151.184 1221.76 150C1221.76 148.816 1221.34 147.824 1220.53 147.008C1219.71 146.192 1218.7 145.792 1217.53 145.792C1216.37 145.792 1215.36 146.192 1214.54 147.008C1213.73 147.824 1213.33 148.816 1213.33 150C1213.33 151.184 1213.73 152.176 1214.54 152.992C1215.36 153.808 1216.37 154.208 1217.53 154.208C1218.7 154.208 1219.71 153.808 1220.53 152.992ZM1217.53 152.848C1216.75 152.848 1216.08 152.576 1215.53 152.032C1214.99 151.488 1214.72 150.816 1214.72 150C1214.72 149.184 1214.99 148.512 1215.53 147.968C1216.08 147.424 1216.75 147.152 1217.53 147.152C1218.33 147.152 1219.01 147.424 1219.55 147.968C1220.09 148.512 1220.37 149.184 1220.37 150C1220.37 150.816 1220.09 151.488 1219.55 152.032C1219.01 152.576 1218.33 152.848 1217.53 152.848ZM1230.75 152.096L1228.86 146H1227.52L1225.63 152.08L1223.87 146H1222.42L1224.9 154H1226.32L1228.19 148.08L1230.06 154H1231.49L1233.97 146H1232.51L1230.75 152.096Z" fill="#FDFDFD"/>
<path d="M137.128 265.552H131.688V260.8H130.2V272H131.688V266.96H137.128V272H138.6V260.8H137.128V265.552ZM147.605 270.992C148.421 270.176 148.837 269.184 148.837 268C148.837 266.816 148.421 265.824 147.605 265.008C146.789 264.192 145.781 263.792 144.613 263.792C143.445 263.792 142.437 264.192 141.621 265.008C140.805 265.824 140.405 266.816 140.405 268C140.405 269.184 140.805 270.176 141.621 270.992C142.437 271.808 143.445 272.208 144.613 272.208C145.781 272.208 146.789 271.808 147.605 270.992ZM144.613 270.848C143.829 270.848 143.157 270.576 142.613 270.032C142.069 269.488 141.797 268.816 141.797 268C141.797 267.184 142.069 266.512 142.613 265.968C143.157 265.424 143.829 265.152 144.613 265.152C145.413 265.152 146.085 265.424 146.629 265.968C147.173 266.512 147.445 267.184 147.445 268C147.445 268.816 147.173 269.488 146.629 270.032C146.085 270.576 145.413 270.848 144.613 270.848ZM159.118 263.792C157.998 263.792 157.166 264.24 156.606 265.152C156.11 264.24 155.326 263.792 154.254 263.792C153.214 263.792 152.414 264.224 151.87 265.072V264H150.478V272H151.87V267.552C151.87 265.936 152.75 265.12 153.918 265.12C154.958 265.12 155.614 265.84 155.614 267.072V272H157.006V267.552C157.006 265.904 157.774 265.12 158.974 265.12C160.046 265.12 160.734 265.84 160.734 267.072V272H162.126V267.024C162.126 265.04 160.91 263.792 159.118 263.792ZM171.736 268.64C171.768 268.432 171.784 268.224 171.784 268.016C171.784 266.848 171.416 265.856 170.664 265.04C169.928 264.208 168.968 263.792 167.8 263.792C166.568 263.792 165.56 264.192 164.776 264.992C163.992 265.792 163.608 266.8 163.608 268C163.608 269.216 164.008 270.224 164.792 271.024C165.592 271.808 166.632 272.208 167.896 272.208C169.464 272.208 170.632 271.6 171.416 270.4L170.232 269.728C169.752 270.512 168.984 270.896 167.928 270.896C166.408 270.896 165.304 270.064 165.032 268.64H171.736ZM167.8 265.104C169.08 265.104 170.136 265.904 170.376 267.424H165.032C165.272 266.016 166.312 265.104 167.8 265.104Z" fill="#00171F"/>
<path d="M239.464 272.208C240.488 272.208 241.432 271.968 242.296 271.472C243.16 270.976 243.832 270.304 244.296 269.472L243 268.736C242.36 269.952 241 270.752 239.464 270.752C238.168 270.752 237.112 270.336 236.296 269.504C235.48 268.672 235.08 267.632 235.08 266.4C235.08 265.152 235.48 264.112 236.296 263.28C237.112 262.448 238.168 262.032 239.464 262.032C241 262.032 242.36 262.832 243 264.064L244.296 263.312C243.336 261.648 241.512 260.592 239.464 260.592C237.768 260.592 236.36 261.152 235.256 262.272C234.152 263.392 233.608 264.768 233.608 266.4C233.608 268.032 234.152 269.408 235.256 270.528C236.36 271.648 237.768 272.208 239.464 272.208ZM252.43 265.376C251.742 264.32 250.734 263.792 249.406 263.792C248.286 263.792 247.326 264.208 246.542 265.024C245.758 265.84 245.358 266.832 245.358 268C245.358 269.168 245.758 270.176 246.542 270.992C247.326 271.808 248.286 272.208 249.406 272.208C250.734 272.208 251.742 271.68 252.43 270.624V272H253.822V264H252.43V265.376ZM249.582 270.864C248.782 270.864 248.11 270.592 247.566 270.048C247.022 269.488 246.75 268.816 246.75 268C246.75 267.184 247.022 266.512 247.566 265.968C248.11 265.408 248.782 265.136 249.582 265.136C250.398 265.136 251.07 265.408 251.614 265.968C252.158 266.512 252.43 267.184 252.43 268C252.43 268.816 252.158 269.488 251.614 270.048C251.07 270.592 250.398 270.864 249.582 270.864ZM260.283 264H258.155V261.76L256.763 262.176V264H255.179V265.344H256.763V269.68C256.763 271.664 257.851 272.32 260.283 272V270.752C258.859 270.816 258.155 270.912 258.155 269.68V265.344H260.283V264ZM269.658 268.64C269.69 268.432 269.706 268.224 269.706 268.016C269.706 266.848 269.338 265.856 268.586 265.04C267.85 264.208 266.89 263.792 265.722 263.792C264.49 263.792 263.482 264.192 262.698 264.992C261.914 265.792 261.53 266.8 261.53 268C261.53 269.216 261.93 270.224 262.714 271.024C263.514 271.808 264.554 272.208 265.818 272.208C267.386 272.208 268.554 271.6 269.338 270.4L268.154 269.728C267.674 270.512 266.906 270.896 265.85 270.896C264.33 270.896 263.226 270.064 262.954 268.64H269.658ZM265.722 265.104C267.002 265.104 268.058 265.904 268.298 267.424H262.954C263.194 266.016 264.234 265.104 265.722 265.104ZM277.946 265.376C277.258 264.32 276.25 263.792 274.938 263.792C273.802 263.792 272.826 264.192 272.042 265.008C271.258 265.808 270.858 266.784 270.858 267.952C270.858 269.12 271.258 270.096 272.042 270.912C272.826 271.728 273.802 272.128 274.938 272.128C276.234 272.128 277.242 271.6 277.946 270.528V271.664C277.946 273.184 276.938 274.112 275.274 274.112C273.978 274.112 273.098 273.664 272.666 272.768L271.45 273.456C272.106 274.72 273.45 275.408 275.242 275.408C276.362 275.408 277.322 275.072 278.122 274.416C278.922 273.76 279.322 272.848 279.322 271.664V264H277.946V265.376ZM277.946 267.952C277.946 268.768 277.674 269.44 277.13 269.984C276.586 270.528 275.914 270.8 275.098 270.8C274.282 270.8 273.61 270.528 273.066 269.984C272.522 269.44 272.25 268.768 272.25 267.952C272.25 267.152 272.522 266.48 273.066 265.936C273.61 265.392 274.282 265.12 275.098 265.12C275.914 265.12 276.586 265.392 277.13 265.936C277.674 266.48 277.946 267.152 277.946 267.952ZM288.183 270.992C288.999 270.176 289.415 269.184 289.415 268C289.415 266.816 288.999 265.824 288.183 265.008C287.367 264.192 286.359 263.792 285.191 263.792C284.023 263.792 283.015 264.192 282.199 265.008C281.383 265.824 280.983 266.816 280.983 268C280.983 269.184 281.383 270.176 282.199 270.992C283.015 271.808 284.023 272.208 285.191 272.208C286.359 272.208 287.367 271.808 288.183 270.992ZM285.191 270.848C284.407 270.848 283.735 270.576 283.191 270.032C282.647 269.488 282.375 268.816 282.375 268C282.375 267.184 282.647 266.512 283.191 265.968C283.735 265.424 284.407 265.152 285.191 265.152C285.991 265.152 286.663 265.424 287.207 265.968C287.751 266.512 288.023 267.184 288.023 268C288.023 268.816 287.751 269.488 287.207 270.032C286.663 270.576 285.991 270.848 285.191 270.848ZM292.448 264H291.056V272H292.448V267.76C292.448 266.88 292.688 266.256 293.184 265.856C293.68 265.456 294.256 265.28 294.944 265.312V263.856C293.744 263.856 292.912 264.352 292.448 265.344V264ZM299.758 270.272L297.038 264H295.55L299.038 271.968L298.894 272.272C298.43 273.44 297.71 273.984 296.734 273.904V275.2C298.334 275.312 299.598 274.304 300.286 272.496L303.55 264H302.062L299.758 270.272Z" fill="#00171F"/>
<path d="M374.16 272L369.984 260.8H368.304L364.128 272H365.712L366.624 269.488H371.664L372.576 272H374.16ZM369.136 262.576L371.152 268.096H367.136L369.136 262.576ZM379.753 263.792C378.425 263.792 377.417 264.32 376.729 265.376V260.8H375.337V272H376.729V270.624C377.417 271.68 378.425 272.208 379.753 272.208C380.873 272.208 381.833 271.808 382.617 270.992C383.401 270.176 383.801 269.168 383.801 268C383.801 266.832 383.401 265.84 382.617 265.024C381.833 264.208 380.873 263.792 379.753 263.792ZM379.577 270.864C378.761 270.864 378.089 270.592 377.545 270.048C377.001 269.488 376.729 268.816 376.729 268C376.729 267.184 377.001 266.512 377.545 265.968C378.089 265.408 378.761 265.136 379.577 265.136C380.377 265.136 381.049 265.408 381.593 265.968C382.137 266.512 382.409 267.184 382.409 268C382.409 268.816 382.137 269.488 381.593 270.048C381.049 270.592 380.377 270.864 379.577 270.864ZM392.214 270.992C393.03 270.176 393.446 269.184 393.446 268C393.446 266.816 393.03 265.824 392.214 265.008C391.398 264.192 390.39 263.792 389.222 263.792C388.054 263.792 387.046 264.192 386.23 265.008C385.414 265.824 385.014 266.816 385.014 268C385.014 269.184 385.414 270.176 386.23 270.992C387.046 271.808 388.054 272.208 389.222 272.208C390.39 272.208 391.398 271.808 392.214 270.992ZM389.222 270.848C388.438 270.848 387.766 270.576 387.222 270.032C386.678 269.488 386.406 268.816 386.406 268C386.406 267.184 386.678 266.512 387.222 265.968C387.766 265.424 388.438 265.152 389.222 265.152C390.022 265.152 390.694 265.424 391.238 265.968C391.782 266.512 392.054 267.184 392.054 268C392.054 268.816 391.782 269.488 391.238 270.032C390.694 270.576 390.022 270.848 389.222 270.848ZM400.607 268.24C400.607 270.032 399.679 270.88 398.287 270.88C397.055 270.88 396.303 270.128 396.303 268.832V264H394.911V268.912C394.911 270.944 396.143 272.208 398.015 272.208C399.183 272.208 400.047 271.76 400.607 270.848V272H401.999V264H400.607V268.24ZM408.471 264H406.343V261.76L404.951 262.176V264H403.367V265.344H404.951V269.68C404.951 271.664 406.039 272.32 408.471 272V270.752C407.047 270.816 406.343 270.912 406.343 269.68V265.344H408.471V264Z" fill="#00171F"/>
<path d="M476.464 272.208C477.488 272.208 478.432 271.968 479.296 271.472C480.16 270.976 480.832 270.304 481.296 269.472L480 268.736C479.36 269.952 478 270.752 476.464 270.752C475.168 270.752 474.112 270.336 473.296 269.504C472.48 268.672 472.08 267.632 472.08 266.4C472.08 265.152 472.48 264.112 473.296 263.28C474.112 262.448 475.168 262.032 476.464 262.032C478 262.032 479.36 262.832 480 264.064L481.296 263.312C480.336 261.648 478.512 260.592 476.464 260.592C474.768 260.592 473.36 261.152 472.256 262.272C471.152 263.392 470.608 264.768 470.608 266.4C470.608 268.032 471.152 269.408 472.256 270.528C473.36 271.648 474.768 272.208 476.464 272.208ZM489.636 270.992C490.452 270.176 490.868 269.184 490.868 268C490.868 266.816 490.452 265.824 489.636 265.008C488.82 264.192 487.812 263.792 486.644 263.792C485.476 263.792 484.468 264.192 483.652 265.008C482.836 265.824 482.436 266.816 482.436 268C482.436 269.184 482.836 270.176 483.652 270.992C484.468 271.808 485.476 272.208 486.644 272.208C487.812 272.208 488.82 271.808 489.636 270.992ZM486.644 270.848C485.86 270.848 485.188 270.576 484.644 270.032C484.1 269.488 483.828 268.816 483.828 268C483.828 267.184 484.1 266.512 484.644 265.968C485.188 265.424 485.86 265.152 486.644 265.152C487.444 265.152 488.116 265.424 488.66 265.968C489.204 266.512 489.476 267.184 489.476 268C489.476 268.816 489.204 269.488 488.66 270.032C488.116 270.576 487.444 270.848 486.644 270.848ZM496.493 263.792C495.325 263.792 494.461 264.24 493.901 265.152V264H492.509V272H493.901V267.76C493.901 265.968 494.829 265.12 496.221 265.12C497.453 265.12 498.205 265.872 498.205 267.168V272H499.597V267.088C499.597 265.056 498.365 263.792 496.493 263.792ZM505.892 264H503.764V261.76L502.372 262.176V264H500.788V265.344H502.372V269.68C502.372 271.664 503.46 272.32 505.892 272V270.752C504.468 270.816 503.764 270.912 503.764 269.68V265.344H505.892V264ZM513.758 265.376C513.07 264.32 512.062 263.792 510.734 263.792C509.614 263.792 508.654 264.208 507.87 265.024C507.086 265.84 506.686 266.832 506.686 268C506.686 269.168 507.086 270.176 507.87 270.992C508.654 271.808 509.614 272.208 510.734 272.208C512.062 272.208 513.07 271.68 513.758 270.624V272H515.15V264H513.758V265.376ZM510.91 270.864C510.11 270.864 509.438 270.592 508.894 270.048C508.35 269.488 508.078 268.816 508.078 268C508.078 267.184 508.35 266.512 508.894 265.968C509.438 265.408 510.11 265.136 510.91 265.136C511.726 265.136 512.398 265.408 512.942 265.968C513.486 266.512 513.758 267.184 513.758 268C513.758 268.816 513.486 269.488 512.942 270.048C512.398 270.592 511.726 270.864 510.91 270.864ZM521.019 272.208C522.571 272.208 523.931 271.392 524.619 270.128L523.435 269.44C522.987 270.288 522.091 270.832 521.019 270.832C520.219 270.832 519.547 270.56 519.003 270.016C518.475 269.472 518.203 268.8 518.203 268C518.203 267.184 518.475 266.512 519.003 265.968C519.547 265.424 520.219 265.152 521.019 265.152C522.091 265.152 522.987 265.712 523.387 266.56L524.555 265.888C523.931 264.608 522.603 263.792 521.019 263.792C519.819 263.792 518.811 264.192 518.011 265.008C517.211 265.808 516.811 266.8 516.811 268C516.811 269.2 517.211 270.192 518.011 271.008C518.811 271.808 519.819 272.208 521.019 272.208ZM530.346 264H528.218V261.76L526.826 262.176V264H525.242V265.344H526.826V269.68C526.826 271.664 527.914 272.32 530.346 272V270.752C528.922 270.816 528.218 270.912 528.218 269.68V265.344H530.346V264Z" fill="#00171F"/>
<g clip-path="url(#clip1_102_1465)">
<path d="M1117 268C1117 261.373 1111.63 256 1105 256C1098.37 256 1093 261.373 1093 268C1093 273.989 1097.39 278.954 1103.12 279.854V271.469H1100.08V268H1103.12V265.356C1103.12 262.349 1104.92 260.688 1107.66 260.688C1108.97 260.688 1110.34 260.922 1110.34 260.922V263.875H1108.83C1107.34 263.875 1106.88 264.8 1106.88 265.75V268H1110.2L1109.67 271.469H1106.88V279.854C1112.61 278.954 1117 273.989 1117 268Z" fill="#00171F"/>
</g>
<g clip-path="url(#clip2_102_1465)">
<path d="M1164.55 277.75C1173.6 277.75 1178.56 270.247 1178.56 263.742C1178.56 263.531 1178.55 263.316 1178.54 263.105C1179.51 262.408 1180.34 261.544 1181 260.556C1180.1 260.955 1179.15 261.216 1178.17 261.329C1179.2 260.713 1179.97 259.746 1180.34 258.606C1179.37 259.179 1178.32 259.583 1177.21 259.801C1176.47 259.012 1175.49 258.489 1174.42 258.314C1173.35 258.139 1172.25 258.321 1171.3 258.832C1170.34 259.343 1169.58 260.155 1169.13 261.142C1168.69 262.128 1168.58 263.235 1168.82 264.291C1166.86 264.192 1164.95 263.684 1163.2 262.798C1161.45 261.913 1159.91 260.67 1158.67 259.15C1158.04 260.233 1157.85 261.516 1158.14 262.736C1158.42 263.957 1159.16 265.024 1160.2 265.72C1159.41 265.695 1158.65 265.485 1157.97 265.106V265.167C1157.96 266.304 1158.36 267.407 1159.08 268.287C1159.8 269.167 1160.8 269.771 1161.92 269.995C1161.19 270.193 1160.43 270.222 1159.69 270.08C1160.01 271.058 1160.62 271.913 1161.45 272.527C1162.27 273.14 1163.27 273.481 1164.29 273.501C1162.55 274.871 1160.39 275.614 1158.18 275.611C1157.78 275.61 1157.39 275.586 1157 275.539C1159.25 276.984 1161.87 277.752 1164.55 277.75Z" fill="#00171F"/>
</g>
<g clip-path="url(#clip3_102_1465)">
<path d="M1233 258.161C1236.21 258.161 1236.59 258.175 1237.85 258.231C1239.02 258.283 1239.65 258.48 1240.07 258.644C1240.63 258.859 1241.03 259.122 1241.45 259.539C1241.87 259.961 1242.13 260.359 1242.35 260.917C1242.51 261.339 1242.71 261.977 1242.76 263.144C1242.82 264.409 1242.83 264.789 1242.83 267.991C1242.83 271.197 1242.82 271.577 1242.76 272.838C1242.71 274.009 1242.51 274.642 1242.35 275.064C1242.13 275.622 1241.87 276.025 1241.45 276.442C1241.03 276.864 1240.63 277.122 1240.07 277.338C1239.65 277.502 1239.01 277.698 1237.85 277.75C1236.58 277.806 1236.2 277.82 1233 277.82C1229.79 277.82 1229.41 277.806 1228.15 277.75C1226.98 277.698 1226.35 277.502 1225.93 277.338C1225.37 277.122 1224.97 276.859 1224.55 276.442C1224.13 276.02 1223.87 275.622 1223.65 275.064C1223.49 274.642 1223.29 274.005 1223.24 272.838C1223.18 271.572 1223.17 271.192 1223.17 267.991C1223.17 264.784 1223.18 264.405 1223.24 263.144C1223.29 261.972 1223.49 261.339 1223.65 260.917C1223.87 260.359 1224.13 259.956 1224.55 259.539C1224.97 259.117 1225.37 258.859 1225.93 258.644C1226.35 258.48 1226.99 258.283 1228.15 258.231C1229.41 258.175 1229.79 258.161 1233 258.161ZM1233 256C1229.74 256 1229.33 256.014 1228.05 256.07C1226.78 256.127 1225.9 256.333 1225.14 256.628C1224.35 256.937 1223.68 257.345 1223.02 258.016C1222.35 258.681 1221.94 259.352 1221.63 260.139C1221.33 260.903 1221.13 261.775 1221.07 263.05C1221.01 264.334 1221 264.742 1221 268C1221 271.258 1221.01 271.666 1221.07 272.945C1221.13 274.22 1221.33 275.097 1221.63 275.856C1221.94 276.648 1222.35 277.319 1223.02 277.984C1223.68 278.65 1224.35 279.062 1225.14 279.367C1225.9 279.663 1226.78 279.869 1228.05 279.925C1229.33 279.981 1229.74 279.995 1233 279.995C1236.25 279.995 1236.66 279.981 1237.94 279.925C1239.22 279.869 1240.09 279.663 1240.85 279.367C1241.64 279.062 1242.31 278.65 1242.98 277.984C1243.64 277.319 1244.05 276.648 1244.36 275.861C1244.65 275.097 1244.86 274.225 1244.92 272.95C1244.97 271.67 1244.99 271.263 1244.99 268.005C1244.99 264.747 1244.97 264.339 1244.92 263.059C1244.86 261.784 1244.65 260.908 1244.36 260.148C1244.06 259.352 1243.65 258.681 1242.98 258.016C1242.32 257.35 1241.65 256.938 1240.86 256.633C1240.1 256.337 1239.23 256.131 1237.95 256.075C1236.67 256.014 1236.26 256 1233 256Z" fill="#00171F"/>
<path d="M1233 261.836C1229.6 261.836 1226.84 264.597 1226.84 268C1226.84 271.403 1229.6 274.164 1233 274.164C1236.4 274.164 1239.16 271.403 1239.16 268C1239.16 264.597 1236.4 261.836 1233 261.836ZM1233 271.998C1230.79 271.998 1229 270.208 1229 268C1229 265.792 1230.79 264.002 1233 264.002C1235.21 264.002 1237 265.792 1237 268C1237 270.208 1235.21 271.998 1233 271.998Z" fill="#00171F"/>
<path d="M1240.85 261.592C1240.85 262.389 1240.2 263.031 1239.41 263.031C1238.61 263.031 1237.97 262.385 1237.97 261.592C1237.97 260.796 1238.62 260.153 1239.41 260.153C1240.2 260.153 1240.85 260.8 1240.85 261.592Z" fill="#00171F"/>
</g>
<path d="M1308.76 263.2C1308.76 263.2 1308.53 261.545 1307.8 260.819C1306.89 259.862 1305.87 259.858 1305.4 259.801C1302.04 259.558 1297 259.558 1297 259.558H1297C1297 259.558 1291.96 259.558 1288.6 259.801C1288.13 259.858 1287.11 259.862 1286.2 260.819C1285.47 261.545 1285.24 263.2 1285.24 263.2C1285.24 263.2 1285 265.145 1285 267.086V268.904C1285 270.845 1285.24 272.79 1285.24 272.79C1285.24 272.79 1285.47 274.445 1286.19 275.172C1287.1 276.128 1288.3 276.095 1288.84 276.198C1290.76 276.381 1297 276.437 1297 276.437C1297 276.437 1302.04 276.428 1305.4 276.189C1305.87 276.133 1306.89 276.128 1307.8 275.172C1308.53 274.445 1308.76 272.79 1308.76 272.79C1308.76 272.79 1309 270.85 1309 268.904V267.086C1309 265.145 1308.76 263.2 1308.76 263.2ZM1294.52 271.112V264.367L1301 267.751L1294.52 271.112Z" fill="#00171F"/>
<defs>
<linearGradient id="paint0_linear_102_1465" x1="-1" y1="0" x2="1181.88" y2="884.288" gradientUnits="userSpaceOnUse">
<stop offset="0.0616933" stop-color="#FCEED5"/>
<stop offset="0.751415" stop-color="#FCEED5"/>
<stop offset="1" stop-color="#FFE7BA"/>
</linearGradient>
<clipPath id="clip0_102_1465">
<rect width="115" height="40" fill="white" transform="translate(662 360)"/>
</clipPath>
<clipPath id="clip1_102_1465">
<rect width="24" height="24" fill="white" transform="translate(1093 256)"/>
</clipPath>
<clipPath id="clip2_102_1465">
<rect width="24" height="24" fill="white" transform="translate(1157 256)"/>
</clipPath>
<clipPath id="clip3_102_1465">
<rect width="24" height="24" fill="white" transform="translate(1221 256)"/>
</clipPath>
</defs>
</svg>
